<?xml version="1.0" encoding="UTF-8"?>
<svg width="57px" height="63px" viewBox="0 0 57 63" version="1.1" xmlns="http://www.w3.org/2000/svg" xmlns:xlink="http://www.w3.org/1999/xlink">
    <!-- Generator: Sketch 53.2 (72643) - https://sketchapp.com -->
    <title>Group 11</title>
    <desc>Created with Sketch.</desc>
    <g id="Symbols" stroke="none" stroke-width="1" fill="none" fill-rule="evenodd">
        <g id="USP-Hund-TroFu-4" transform="translate(-56.000000, -45.000000)" stroke="#555555" stroke-width="2">
            <g id="Group-11" transform="translate(57.000000, 46.000000)">
                <path d="M22.5,0 L22.5,5" id="Stroke-1" stroke-linecap="round"></path>
                <path d="M12.4438652,2.08355937 C4.08373997,1.34550392 -13.3952445,4.85263411 18.0022946,39 C49.3942135,4.85263411 31.915229,1.34550392 23.5551038,2.08355937" id="Stroke-3"></path>
                <path d="M13.5,0 L13.5,5" id="Stroke-5" stroke-linecap="round"></path>
                <path d="M18,40 C18,67.7563458 49,67.7563458 49,41.4334263" id="Stroke-7"></path>
                <path d="M55,36.4986496 C55,33.4630493 52.3153242,31 49,31 C45.6846758,31 43,33.4630493 43,36.4986496 C43,39.5369507 45.6846758,42 49,42 C52.3153242,42 55,39.5369507 55,36.4986496 Z" id="Stroke-9"></path>
            </g>
        </g>
    </g>
</svg>