<?xml version="1.0" encoding="UTF-8"?>
<svg width="62px" height="83px" viewBox="0 0 62 83" version="1.1" xmlns="http://www.w3.org/2000/svg" xmlns:xlink="http://www.w3.org/1999/xlink">
    <!-- Generator: Sketch 53.2 (72643) - https://sketchapp.com -->
    <title>Group 25</title>
    <desc>Created with Sketch.</desc>
    <g id="Symbols" stroke="none" stroke-width="1" fill="none" fill-rule="evenodd">
        <g id="USP-Hund-NaFu-4" transform="translate(-54.000000, -37.000000)" stroke="#555555" stroke-width="2">
            <g id="Group-25" transform="translate(55.000000, 38.000000)">
                <path d="M17.76985,5.2327 C17.71785,5.3302 17.67185,5.3792 17.66785,5.4307 C17.66185,5.5137 17.71985,5.5692 17.80435,5.5662 C17.87935,5.5632 17.93185,5.5077 17.91135,5.4352 C17.89435,5.3767 17.83935,5.3287 17.76985,5.2327 Z M17.16735,6.6727 C17.17585,6.7447 17.17735,6.7687 17.18135,6.7927 C17.20285,6.9252 17.28985,7.0187 17.41585,7.0382 C17.52085,7.0547 17.61385,7.0207 17.66735,6.9287 C17.73285,6.8152 17.68785,6.7097 17.61385,6.6147 C17.59935,6.5952 17.58285,6.5767 17.56535,6.5602 C17.48585,6.4867 17.39035,6.4042 17.28835,6.4727 C17.21985,6.5187 17.19385,6.6262 17.16735,6.6727 Z M18.11235,4.9997 C18.30285,4.9907 18.46885,4.9287 18.60685,4.8062 C18.71485,4.7102 18.77085,4.5837 18.74685,4.4352 C18.73135,4.3352 18.65335,4.2887 18.57235,4.3462 C18.38035,4.4822 18.18035,4.6002 17.96085,4.6882 C17.91785,4.7052 17.87035,4.8022 17.88285,4.8457 C17.89935,4.9027 17.96885,4.9487 18.02335,4.9897 C18.04485,5.0062 18.08585,4.9977 18.11235,4.9997 Z M16.73935,4.0357 C16.51835,4.0057 16.40885,4.0622 16.37535,4.2642 C16.35185,4.4072 16.35535,4.5572 16.37135,4.7017 C16.38735,4.8452 16.47635,4.9562 16.60385,5.0277 C16.70585,5.0847 16.81535,5.1317 16.92285,5.0442 C17.02935,4.9582 17.05435,4.8432 17.01035,4.7147 C16.98435,4.6377 16.95435,4.5617 16.92435,4.4867 C16.86685,4.3447 16.80835,4.2027 16.73935,4.0357 Z M18.44585,6.3712 C18.58285,6.3822 18.72685,6.3432 18.79035,6.1897 C18.84485,6.0577 18.88485,5.9122 18.89335,5.7707 C18.90485,5.5642 18.75035,5.4637 18.55185,5.5387 C18.43985,5.5812 18.33485,5.6462 18.23135,5.7087 C18.05435,5.8162 17.98835,5.9557 18.03285,6.1092 C18.08085,6.2737 18.22235,6.3682 18.44585,6.3712 Z M16.80535,3.9832 C17.03485,4.2782 17.33285,4.3902 17.66085,4.4432 C17.86035,4.4747 17.98935,4.4132 18.07535,4.2272 C18.11885,4.1332 18.15235,4.0292 18.16385,3.9267 C18.20335,3.5787 17.96935,3.3682 17.62635,3.4367 C17.48385,3.4657 17.34285,3.5022 17.20335,3.5452 C16.98635,3.6122 16.83985,3.7487 16.80535,3.9832 Z M17.72385,2.1962 C17.59785,2.0647 17.45135,2.0692 17.30735,2.0577 C17.02385,2.0362 16.91835,1.9282 16.89635,1.6467 C16.88985,1.5657 16.89185,1.4827 16.87735,1.4037 C16.84285,1.2177 16.90885,1.1002 17.07585,1.0052 C17.20685,0.9307 17.32385,0.8217 17.42185,0.7057 C17.51585,0.5947 17.49035,0.4827 17.38885,0.3787 C17.19885,0.1852 16.93085,0.2117 16.79035,0.4477 C16.73785,0.5362 16.71335,0.6427 16.67585,0.7412 C16.61185,0.9067 16.55535,1.0757 16.48235,1.2372 C16.34035,1.5512 16.23385,1.8747 16.21885,2.2202 C16.20635,2.5207 16.21235,2.8222 16.21885,3.1232 C16.22085,3.2097 16.23985,3.3037 16.27985,3.3787 C16.30385,3.4242 16.38585,3.4672 16.43735,3.4622 C16.48935,3.4567 16.55385,3.4012 16.58035,3.3502 C16.60835,3.2972 16.60535,3.2232 16.60035,3.1597 C16.59285,3.0627 16.56635,2.9677 16.55785,2.8702 C16.53535,2.6152 16.66935,2.4927 16.92335,2.5292 C16.97935,2.5372 17.03635,2.5452 17.09285,2.5462 C17.36885,2.5517 17.56535,2.4182 17.72385,2.1962 Z M33.56035,78.0337 C33.57735,78.0702 33.59585,78.0917 33.59685,78.1142 C33.60535,78.3162 33.71585,78.4202 33.90785,78.4587 C34.05385,78.4882 34.15035,78.5882 34.22085,78.7127 C34.26135,78.7837 34.29385,78.8587 34.32635,78.9327 C34.42135,79.1487 34.57935,79.2542 34.82085,79.2637 C35.07985,79.2732 35.32385,79.2312 35.55785,79.1267 C35.77585,79.0297 35.96985,79.0197 36.16635,79.1952 C36.30785,79.3217 36.45985,79.2977 36.60935,79.1727 C36.65885,79.1312 36.70285,79.0817 36.74335,79.0312 C36.88435,78.8552 37.05535,78.7597 37.29185,78.7702 C37.49335,78.7802 37.54585,78.7107 37.54635,78.5027 C37.54635,78.4622 37.54035,78.4212 37.54035,78.3807 C37.54185,78.1987 37.60185,78.1322 37.78785,78.1217 C37.90185,78.1157 38.01685,78.1312 38.13035,78.1222 C38.38435,78.1037 38.59235,78.0127 38.65985,77.7372 C38.71685,77.5082 38.87685,77.3817 39.08185,77.2972 C39.31835,77.1997 39.56685,77.2177 39.80535,77.2597 C40.03685,77.3007 40.24035,77.2537 40.44285,77.1597 C40.52385,77.1212 40.60085,77.0757 40.68135,77.0357 C41.02335,76.8682 41.37885,76.7572 41.76485,76.8122 C41.94185,76.8377 42.11385,76.8987 42.29085,76.9147 C42.44135,76.9292 42.59985,76.9232 42.74585,76.8887 C42.92385,76.8467 42.98835,76.7012 42.93185,76.5262 C42.90235,76.4337 42.84935,76.3492 42.81135,76.2597 C42.74435,76.1027 42.75935,75.9557 42.88035,75.8297 C42.95235,75.7547 43.03735,75.7302 43.10985,75.8242 C43.24985,76.0052 43.42285,75.9997 43.61485,75.9337 C43.69935,75.9052 43.78785,75.8872 43.87635,75.8732 C44.15885,75.8282 44.38735,75.8982 44.53735,76.1687 C44.59085,76.2647 44.67735,76.3497 44.76585,76.4187 C45.02885,76.6227 45.29385,76.6042 45.53735,76.3762 C45.60285,76.3147 45.65985,76.2447 45.72535,76.1832 C46.04235,75.8842 46.44885,75.9087 46.72285,76.2422 C46.75935,76.2862 46.79635,76.3297 46.83135,76.3747 C46.90485,76.4697 46.94385,76.5727 46.90835,76.6942 C46.83185,76.9557 46.95385,77.1292 47.15685,77.2752 C47.33585,77.4032 47.50935,77.5392 47.67785,77.6802 C47.87785,77.8462 48.10685,77.9417 48.35835,77.9922 C48.72135,78.0647 48.99935,77.7802 48.91785,77.4182 C48.90535,77.3627 48.88935,77.3072 48.87635,77.2522 C48.82585,77.0427 48.85285,76.8477 48.98185,76.6707 C49.03385,76.5977 49.08635,76.5242 49.12985,76.4462 C49.19985,76.3202 49.23235,76.1807 49.16885,76.0467 C49.07135,75.8422 48.97585,75.6317 48.84385,75.4497 C48.67485,75.2162 48.51485,75.1897 48.24335,75.2987 C48.12685,75.3457 48.00485,75.4012 47.90435,75.2932 C47.79185,75.1737 47.87285,75.0487 47.93435,74.9337 C47.99235,74.8262 48.05885,74.7232 48.11785,74.6162 C48.17685,74.5092 48.23535,74.4017 48.28735,74.2912 C48.37135,74.1142 48.38835,73.9297 48.30985,73.7462 C48.16135,73.4002 47.99285,73.0712 47.69335,72.8202 C47.55985,72.7082 47.45085,72.5572 47.36035,72.4067 C47.26835,72.2537 47.16035,72.1332 47.00635,72.0462 C46.90035,71.9872 46.79285,71.9237 46.70285,71.8432 C46.55235,71.7072 46.54885,71.5442 46.67735,71.3877 C46.71335,71.3442 46.75735,71.3052 46.80335,71.2727 C47.01585,71.1247 47.18435,70.9447 47.27435,70.6952 C47.32785,70.5467 47.43885,70.4577 47.60035,70.4347 C47.81085,70.4047 47.97735,70.2982 48.12285,70.1447 C48.40685,69.8452 48.75685,69.6722 49.16585,69.6042 C49.72535,69.5117 50.21385,69.2597 50.65035,68.9012 C50.89735,68.6982 51.03685,68.4502 51.02085,68.1162 C51.01335,67.9642 51.03385,67.8037 51.07985,67.6587 C51.15335,67.4252 51.16835,67.2042 51.10585,66.9637 C51.01535,66.6147 51.36635,66.3087 51.71335,66.4172 C52.02385,66.5142 52.33035,66.6117 52.58985,66.8297 C52.77735,66.9882 52.94285,66.9447 53.08635,66.7422 C53.19885,66.5822 53.32185,66.4277 53.41535,66.2567 C53.63535,65.8542 53.78235,65.4427 53.56435,64.9797 C53.51335,64.8712 53.50985,64.7217 53.53285,64.5997 C53.57985,64.3552 53.55585,64.1252 53.44035,63.9117 C53.31235,63.6762 53.16785,63.4492 53.02235,63.2227 C52.93885,63.0932 52.81335,63.0102 52.65485,63.0172 C52.40935,63.0287 52.26485,62.8972 52.14035,62.7077 C51.86435,62.2872 51.64735,62.2052 51.17285,62.3222 C50.86085,62.3992 50.53685,62.1512 50.54735,61.8342 C50.55235,61.6637 50.51635,61.5112 50.41585,61.3742 C50.14985,61.0112 49.83485,60.7352 49.34335,60.7612 C49.18735,60.7692 49.04735,60.7137 48.96935,60.5732 C48.82535,60.3117 48.62985,60.0972 48.41285,59.8967 C48.33635,59.8267 48.28585,59.7277 48.21985,59.6452 C48.03735,59.4167 47.86585,59.1777 47.66535,58.9657 C47.36435,58.6482 47.00935,58.4672 46.54735,58.5897 C46.29435,58.6567 46.08835,58.5742 45.95085,58.3287 C45.84585,58.1412 45.68985,57.9882 45.49235,57.9002 C45.22135,57.7797 45.09085,57.5847 45.09735,57.2897 C45.10185,57.1102 45.02135,56.9657 44.91535,56.8227 C44.80535,56.6737 44.72335,56.5042 44.63385,56.3417 C44.55135,56.1927 44.48885,56.0312 44.39235,55.8917 C44.30135,55.7612 44.22835,55.6292 44.21235,55.4712 C44.19635,55.3092 44.10735,55.2017 43.97135,55.1252 C43.91485,55.0937 43.85535,55.0667 43.79785,55.0357 C43.44085,54.8432 43.41485,54.6897 43.69235,54.4052 C43.70335,54.3932 43.71435,54.3807 43.72685,54.3702 C43.83435,54.2777 43.86385,54.1652 43.85735,54.0217 C43.85185,53.9057 43.88485,53.7817 43.92835,53.6717 C43.97285,53.5597 44.05335,53.4627 44.11435,53.3567 C44.26785,53.0897 44.25085,52.9567 44.02285,52.7592 C43.91935,52.6697 43.84085,52.5702 43.82485,52.4337 C43.80235,52.2387 43.68535,52.1327 43.51235,52.0647 C43.39935,52.0207 43.28535,51.9732 43.18085,51.9112 C42.73135,51.6447 42.31935,51.3287 41.94985,50.9562 C41.84785,50.8532 41.80785,50.7417 41.84735,50.6022 C41.86135,50.5557 41.87885,50.5097 41.89085,50.4622 C41.96485,50.1797 41.90135,50.0347 41.64485,49.8987 C41.55135,49.8492 41.45235,49.8077 41.36485,49.7492 C41.22185,49.6527 41.21035,49.5797 41.26935,49.4152 C41.31035,49.3022 41.33185,49.1817 41.37035,49.0672 C41.38935,49.0102 41.42685,48.9137 41.45535,48.9137 C41.51685,48.9142 41.58685,48.9557 41.63685,48.9992 C41.74085,49.0882 41.82285,49.2067 41.93585,49.2812 C42.08085,49.3762 42.17585,49.4907 42.22535,49.6567 C42.25485,49.7562 42.30285,49.8552 42.36485,49.9382 C42.44035,50.0387 42.53385,50.0377 42.60785,49.9342 C42.66835,49.8502 42.70185,49.7467 42.74435,49.6512 C42.88985,49.3242 43.02885,48.9942 43.18285,48.6717 C43.22235,48.5887 43.30885,48.5262 43.37735,48.4582 C43.49185,48.3442 43.60635,48.2287 43.72685,48.1207 C43.82235,48.0352 43.91535,47.9257 44.03035,47.8867 C44.25085,47.8112 44.48785,47.7822 44.71585,47.7252 C44.87135,47.6872 45.02735,47.6442 45.17635,47.5867 C45.27385,47.5492 45.36085,47.4832 45.45035,47.4267 C45.64735,47.3027 45.85035,47.3032 46.05585,47.3982 C46.15935,47.4462 46.25885,47.5032 46.36085,47.5542 C46.63885,47.6917 46.87685,47.6107 46.99035,47.3187 C47.03585,47.2017 47.03485,47.0652 47.05035,46.9367 C47.07085,46.7642 47.13185,46.6802 47.29785,46.6512 C47.50535,46.6152 47.71485,46.5852 47.92535,46.5697 C48.15885,46.5522 48.26485,46.4722 48.31085,46.2422 C48.33135,46.1387 48.34035,46.0312 48.37335,45.9317 C48.41535,45.8067 48.50935,45.7107 48.64585,45.7277 C48.88585,45.7582 48.99835,45.6292 49.09985,45.4412 C49.23235,45.1972 49.29785,45.1862 49.54535,45.3162 C49.75185,45.4242 49.88835,45.4032 50.05085,45.2392 C50.20335,45.0842 50.25385,44.8952 50.25535,44.6812 C50.25685,44.4172 50.31735,44.3537 50.57335,44.3067 C50.88435,44.2502 51.18335,44.1312 51.50785,44.1487 C51.56135,44.1517 51.61585,44.1147 51.67135,44.1042 C51.84635,44.0727 52.02135,44.0307 52.19785,44.0177 C52.48735,43.9967 52.57635,43.9442 52.63885,43.6622 C52.69285,43.4217 52.83785,43.2712 53.05585,43.1912 C53.16785,43.1497 53.29285,43.1432 53.41185,43.1227 C53.53135,43.1022 53.66635,43.1132 53.76885,43.0602 C54.11535,42.8822 54.46935,42.7052 54.73385,42.4067 C54.87385,42.2472 55.03435,42.1382 55.24135,42.0897 C55.32785,42.0697 55.41335,42.0367 55.49335,41.9972 C55.70835,41.8912 55.71885,41.7487 55.52585,41.6152 C55.49235,41.5922 55.44985,41.5797 55.42035,41.5537 C55.25785,41.4067 55.08735,41.2662 54.93935,41.1052 C54.82035,40.9752 54.82885,40.7812 54.92635,40.6522 C55.01985,40.5282 55.17035,40.4902 55.34535,40.5567 C55.42835,40.5887 55.50735,40.6337 55.58535,40.6772 C55.70335,40.7422 55.82335,40.7472 55.93185,40.6682 C56.13685,40.5192 56.32635,40.5557 56.51435,40.6972 C56.56685,40.7362 56.62285,40.7702 56.67735,40.8057 C56.90085,40.9482 57.04335,41.1272 56.97735,41.4142 C56.94735,41.5427 56.99685,41.6252 57.13035,41.6762 C57.38785,41.7737 57.38535,41.7817 57.35935,42.0512 C57.34035,42.2472 57.37985,42.3182 57.55935,42.3897 C57.73285,42.4592 57.91435,42.5112 58.08185,42.5927 C58.28485,42.6917 58.49735,42.6022 58.58635,42.3617 C58.61135,42.2932 58.63235,42.2202 58.63635,42.1477 C58.64885,41.9527 58.73685,41.7922 58.82835,41.6262 C58.91435,41.4717 58.98035,41.3027 59.03335,41.1332 C59.11935,40.8622 59.17585,40.5812 59.26535,40.3122 C59.41935,39.8517 59.53035,39.3902 59.48485,38.8982 C59.47135,38.7567 59.50185,38.6047 59.54135,38.4657 C59.60485,38.2432 59.59635,38.0312 59.50135,37.8227 C59.38985,37.5777 59.27235,37.3362 59.15985,37.0922 C59.03835,36.8292 58.96735,36.5682 59.03335,36.2662 C59.11185,35.9107 58.95985,35.7447 58.58985,35.7427 C58.40285,35.7417 58.23685,35.6957 58.07935,35.6017 C57.95335,35.5267 57.82285,35.4582 57.70235,35.3757 C57.43335,35.1917 57.40085,35.0587 57.57435,34.7857 C57.68485,34.6132 57.69935,34.4372 57.65435,34.2482 C57.62935,34.1452 57.59285,34.0452 57.56985,33.9422 C57.52985,33.7657 57.43785,33.6257 57.28385,33.5327 C57.10685,33.4247 57.01435,33.2602 56.93435,33.0762 C56.86735,32.9207 56.78435,32.7677 56.68385,32.6322 C56.43735,32.3007 56.43285,32.2397 56.70135,31.9147 C56.71185,31.9022 56.72135,31.8892 56.73285,31.8772 C56.96085,31.6207 57.07585,31.3262 57.03385,30.9792 C57.00835,30.7677 57.06935,30.5787 57.16435,30.3922 C57.33985,30.0497 57.35785,29.6887 57.00935,29.4002 C56.92185,29.3267 56.83535,29.2057 56.82235,29.0977 C56.79635,28.8672 56.79885,28.6282 56.82485,28.3972 C56.86235,28.0692 56.78335,27.9132 56.46685,27.8002 C56.40585,27.7782 56.34285,27.7627 56.27935,27.7492 C56.06835,27.7042 55.93335,27.5782 55.86585,27.3757 C55.80935,27.2057 55.77935,27.0202 55.69135,26.8687 C55.51485,26.5657 55.56335,26.3132 55.79435,26.0732 C55.81685,26.0502 55.83335,26.0207 55.85435,25.9962 C56.01485,25.8077 56.07085,25.5972 55.98835,25.3592 C55.94035,25.2217 55.94135,25.0852 56.00135,24.9537 C56.11235,24.7107 56.04385,24.5192 55.86085,24.3387 C55.67535,24.1557 55.45285,24.0427 55.21785,23.9487 C54.95035,23.8417 54.73235,23.6812 54.61435,23.4097 C54.51635,23.1817 54.34585,23.0312 54.13485,22.9072 C53.88985,22.7627 53.65785,22.5962 53.41885,22.4407 C53.28935,22.3572 53.16185,22.2687 53.02585,22.1987 C52.81485,22.0897 52.77035,22.0302 52.82585,21.7932 C52.86435,21.6287 52.86785,21.4722 52.81785,21.3127 C52.75085,21.0977 52.82035,20.9307 52.99585,20.7982 C53.12585,20.7002 53.25735,20.6022 53.38035,20.4957 C53.84285,20.0957 54.13185,19.6222 54.02685,18.9757 C53.96785,18.6137 53.99785,18.2677 54.23435,17.9537 C54.35385,17.7947 54.34485,17.5872 54.23185,17.4212 C54.08335,17.2027 54.03385,16.9627 53.99585,16.7107 C53.97535,16.5752 53.93135,16.4407 53.88285,16.3117 C53.69985,15.8322 53.51385,15.3542 53.32335,14.8782 C53.25635,14.7092 53.21585,14.5402 53.21535,14.3562 C53.21485,14.1867 53.20535,14.0122 53.16185,13.8492 C53.07135,13.5117 52.95985,13.1792 52.84785,12.8472 C52.74085,12.5297 52.58435,12.4717 52.29485,12.6482 C52.11785,12.7562 51.93235,12.8042 51.73485,12.7682 C51.34285,12.6982 50.99635,12.5187 50.67385,12.2912 C50.60385,12.2427 50.53685,12.1727 50.57935,12.0887 C50.60685,12.0342 50.68435,11.9977 50.74685,11.9697 C50.86385,11.9162 51.00135,11.8967 51.10235,11.8242 C51.27735,11.6992 51.45835,11.6437 51.67185,11.6452 C51.83335,11.6462 51.99685,11.6212 52.15535,11.5882 C52.36935,11.5437 52.43785,11.4442 52.42935,11.2222 C52.42135,10.9972 52.37185,10.7847 52.20485,10.6187 C51.93885,10.3542 51.67785,10.0842 51.40235,9.8297 C51.15435,9.6017 50.87585,9.4112 50.53335,9.3582 C50.31285,9.3242 50.15985,9.2077 50.04585,9.0282 C49.97985,8.9252 49.92385,8.8157 49.85435,8.7152 C49.71335,8.5087 49.59735,8.4862 49.42185,8.6527 C49.30585,8.7622 49.18135,8.7947 49.04185,8.7512 C48.89735,8.7062 48.76985,8.7347 48.64085,8.7942 C48.37535,8.9172 48.10885,9.0387 47.84385,9.1637 C47.62785,9.2657 47.52935,9.2527 47.42235,9.0517 C47.30135,8.8237 47.17485,8.6137 46.92335,8.5062 C46.88435,8.4897 46.84485,8.4107 46.85185,8.3682 C46.85785,8.3312 46.92435,8.2902 46.97135,8.2757 C47.32035,8.1672 47.39585,8.0477 47.31935,7.7057 C47.26085,7.4452 47.41235,7.1887 47.67185,7.1657 C47.85435,7.1497 48.01735,7.0997 48.18635,7.0382 C48.48485,6.9302 48.64385,7.0247 48.71435,7.3267 C48.75035,7.4827 48.84935,7.5782 48.97285,7.5772 C49.09585,7.5762 49.20085,7.4802 49.23635,7.3277 C49.25985,7.2247 49.26335,7.1167 49.29335,7.0157 C49.36435,6.7792 49.29735,6.5867 49.09135,6.4677 C48.71785,6.2517 48.37285,5.9462 47.88835,6.0312 C47.87285,6.0342 47.85635,6.0317 47.84035,6.0292 C47.70985,6.0122 47.59835,5.8932 47.59685,5.7637 C47.59535,5.6342 47.67885,5.5657 47.79185,5.5517 C48.14485,5.5077 48.36385,5.2527 48.60235,5.0372 C48.76085,4.8932 48.75885,4.6562 48.63635,4.4512 C48.51585,4.2487 48.35035,4.1807 48.11785,4.2447 C48.02435,4.2702 47.93035,4.2992 47.84035,4.3362 C47.60485,4.4332 47.53635,4.5502 47.53635,4.8077 C47.53635,4.9207 47.53485,5.0377 47.50535,5.1452 C47.45935,5.3102 47.37185,5.3322 47.23535,5.2247 C47.04285,5.0727 46.86735,4.9057 46.73785,4.6917 C46.62435,4.5042 46.62635,4.4817 46.74735,4.3007 C46.86885,4.1187 46.98385,3.9297 47.07635,3.7322 C47.17685,3.5177 47.08235,3.3807 46.84535,3.3777 C46.51335,3.3732 46.22885,3.5062 45.97085,3.7042 C45.93985,3.7287 45.91485,3.7637 45.89285,3.7977 C45.80385,3.9367 45.81535,3.9977 45.94585,4.1077 C46.08535,4.2257 46.10635,4.3022 46.04585,4.4657 C45.99485,4.6027 45.90335,4.6992 45.76685,4.7557 C45.58185,4.8317 45.50185,4.9782 45.47585,5.1727 C45.45935,5.3002 45.42485,5.4297 45.37285,5.5467 C45.20035,5.9392 45.24535,6.0702 45.63685,6.2527 C45.70335,6.2842 45.77135,6.3117 45.83435,6.3482 C45.87585,6.3727 45.91685,6.4042 45.94485,6.4427 C45.98885,6.5027 45.98935,6.5777 45.91335,6.6067 C45.72385,6.6782 45.51885,6.7657 45.32535,6.6767 C45.14485,6.5932 44.96285,6.4757 44.83185,6.3287 C44.56885,6.0322 44.24735,5.9732 43.88485,6.0157 C43.70785,6.0362 43.53235,6.0847 43.35535,6.0907 C43.05385,6.1012 42.75185,6.0832 42.44985,6.0877 C42.27885,6.0902 42.13535,6.0422 41.99935,5.9367 C41.76085,5.7522 41.59685,5.7902 41.44235,6.0517 C41.40935,6.1072 41.38735,6.1697 41.35735,6.2272 C41.25085,6.4287 41.14385,6.6292 41.03535,6.8292 C40.97735,6.9367 40.89185,7.0357 40.86135,7.1502 C40.76135,7.5212 40.51535,7.7687 40.21685,7.9812 C40.13035,8.0422 40.05035,8.1127 39.96435,8.1752 C39.78285,8.3062 39.63185,8.4662 39.52935,8.6642 C39.42035,8.8737 39.26035,8.9687 39.02185,8.9777 C38.69935,8.9897 38.39085,9.0747 38.14135,9.2927 C37.95085,9.4592 37.76085,9.4947 37.54435,9.3527 C37.23485,9.1492 36.57785,9.3867 36.45185,9.7252 C36.38735,9.9002 36.28035,10.0037 36.09285,10.0492 C35.92485,10.0897 35.84385,10.2237 35.85035,10.3742 C35.86385,10.6812 35.86385,10.6812 35.57485,10.7517 C35.52785,10.7637 35.47785,10.7697 35.43285,10.7877 C35.27635,10.8502 35.14985,10.9507 35.08035,11.1082 C35.00885,11.2712 35.05635,11.3742 35.22435,11.4262 C35.27085,11.4407 35.32485,11.4367 35.36585,11.4587 C35.41335,11.4837 35.47885,11.5237 35.48585,11.5657 C35.49735,11.6387 35.49185,11.7307 35.45485,11.7912 C35.40185,11.8782 35.30485,11.8447 35.23685,11.7987 C35.01185,11.6497 34.77685,11.5617 34.50085,11.6027 C34.37885,11.6207 34.32585,11.5357 34.31335,11.4257 C34.29635,11.2737 34.21335,11.1727 34.07935,11.1052 C34.02935,11.0797 33.97835,11.0502 33.93535,11.0137 C33.68135,10.7992 33.17135,10.8112 32.91235,11.0452 C32.78635,11.1592 32.63785,11.2492 32.49685,11.3457 C32.39835,11.4127 32.27985,11.4517 32.17235,11.3997 C31.94585,11.2897 31.71785,11.1767 31.51135,11.0347 C31.30685,10.8932 31.30285,10.6542 31.49585,10.4927 C31.59085,10.4132 31.71985,10.3657 31.84185,10.3307 C32.00935,10.2827 32.17785,10.2372 32.28385,10.0922 C32.45735,9.8557 32.68635,9.6957 32.93335,9.5467 C33.33085,9.3067 33.39435,9.0957 33.29035,8.6407 C33.23485,8.3967 33.21835,8.1422 33.20135,7.8912 C33.19135,7.7432 33.24185,7.6077 33.34785,7.4892 C33.42185,7.4072 33.48835,7.3047 33.51885,7.1997 C33.59185,6.9492 33.74335,6.9082 33.97085,6.9707 C34.06485,6.9957 34.15435,7.0447 34.24935,7.0587 C34.32235,7.0697 34.41585,7.0657 34.47385,7.0282 C34.55935,6.9722 34.54485,6.8672 34.50735,6.7827 C34.46135,6.6787 34.39785,6.5827 34.34735,6.4802 C33.98635,5.7407 34.04685,5.8897 33.33635,5.5937 C33.31385,5.5842 33.28835,5.5817 33.26635,5.5717 C33.10585,5.4992 32.96085,5.5377 32.83435,5.6447 C32.60685,5.8372 32.51285,6.0937 32.51985,6.3837 C32.52435,6.5602 32.62435,6.6467 32.79935,6.6577 C32.83985,6.6597 32.88085,6.6552 32.92135,6.6577 C33.11735,6.6712 33.17585,6.7902 33.06385,6.9532 C32.96035,7.1047 32.80035,7.1407 32.63435,7.1422 C32.21785,7.1467 31.88435,7.3097 31.60735,7.6222 C31.25635,8.0167 31.06135,8.0242 30.66285,7.6697 C30.46985,7.4982 30.25935,7.3662 30.01335,7.2937 C29.64485,7.1852 29.28985,7.0487 28.96985,6.8302 C28.94335,6.8122 28.91135,6.8022 28.88335,6.7862 C28.64385,6.6577 28.41385,6.6422 28.16585,6.7852 C27.93635,6.9182 27.85785,6.8757 27.82135,6.6197 C27.79735,6.4557 27.70935,6.3547 27.57985,6.2742 C27.39635,6.1602 27.19985,6.1442 26.99185,6.1877 C26.81935,6.2237 26.64385,6.2477 26.45285,6.2802 C26.46835,6.2287 26.47035,6.2022 26.48335,6.1837 C26.78735,5.7557 26.83535,5.2642 26.83435,4.7607 C26.83435,4.5972 26.79335,4.4557 26.65485,4.3542 C26.57285,4.2942 26.51085,4.2192 26.52085,4.1082 C26.52735,4.0352 26.53935,3.9627 26.54635,3.8892 C26.57285,3.6017 26.47485,3.3607 26.26285,3.1682 C26.13535,3.0532 26.03235,3.0382 25.91785,3.1547 C25.74585,3.3287 25.59185,3.2722 25.41285,3.1762 C25.19185,3.0562 24.96585,2.9442 24.73335,2.8487 C24.52735,2.7647 24.33335,2.6757 24.17935,2.5057 C24.05985,2.3737 23.98735,2.3682 23.83285,2.4552 C23.71985,2.5197 23.61585,2.6002 23.51235,2.6797 C23.38585,2.7762 23.26135,2.8202 23.11285,2.7202 C22.99035,2.6377 22.86535,2.6612 22.74685,2.7372 C22.69185,2.7722 22.63835,2.8097 22.58335,2.8442 C22.34585,2.9927 22.24335,2.9617 22.13835,2.6962 C22.08585,2.5637 22.03135,2.4327 21.89735,2.3717 C21.78035,2.3187 21.65485,2.2792 21.52885,2.2527 C21.28285,2.2017 21.02285,2.1967 20.78935,2.1137 C20.32235,1.9472 19.85685,1.9097 19.37235,1.9957 C19.18785,2.0287 18.99735,2.0412 18.82035,1.9557 C18.53285,1.8167 18.29835,1.9322 18.08035,2.1087 C18.04135,2.1407 18.00685,2.2322 18.02435,2.2732 C18.15485,2.5767 18.22385,2.9122 18.48285,3.1537 C18.56185,3.2267 18.63485,3.3387 18.65085,3.4422 C18.72135,3.9187 19.01135,4.2702 19.29635,4.6252 C19.38085,4.7312 19.43535,4.8332 19.45385,4.9717 C19.46935,5.0852 19.52335,5.2047 19.59285,5.2982 C19.78085,5.5527 19.78185,5.6742 19.57185,5.9207 C19.50385,6.0007 19.43135,6.0837 19.38935,6.1782 C19.27635,6.4322 19.40235,6.6357 19.67635,6.6647 C19.75635,6.6732 19.83935,6.6802 19.91335,6.7072 C19.99485,6.7377 20.00685,6.8282 19.93885,6.8812 C19.89585,6.9142 19.83835,6.9402 19.78485,6.9467 C19.43835,6.9857 19.09035,7.0147 18.74335,7.0562 C18.63235,7.0697 18.51985,7.0987 18.41635,7.1417 C18.29335,7.1937 18.21835,7.2952 18.25835,7.4357 C18.30535,7.6052 18.24435,7.7067 18.10235,7.8017 C17.94435,7.9067 17.92485,8.0472 18.03185,8.2027 C18.09135,8.2887 18.17485,8.3582 18.25135,8.4307 C18.42385,8.5937 18.60685,8.6332 18.82785,8.5117 C18.92985,8.4552 19.05985,8.4292 19.17735,8.4287 C19.39535,8.4272 19.51285,8.5582 19.48885,8.7732 C19.47535,8.8997 19.43785,9.0317 19.37835,9.1437 C19.22685,9.4297 19.30635,9.6797 19.46485,9.9247 C19.53485,10.0337 19.63235,10.0897 19.76935,10.0947 C20.08135,10.1057 20.29335,10.3172 20.32035,10.6262 C20.33185,10.7617 20.28135,10.8197 20.13785,10.8207 C20.06585,10.8217 19.99335,10.8012 19.92085,10.7942 C19.75785,10.7797 19.60585,10.8122 19.51035,10.9542 C19.42435,11.0822 19.49435,11.2027 19.56135,11.3187 C19.64235,11.4597 19.72185,11.6017 19.79985,11.7447 C19.86985,11.8737 19.92585,12.0112 20.00685,12.1327 C20.12085,12.3057 20.26935,12.4567 20.48785,12.4777 C20.81185,12.5087 21.13885,12.5457 21.46235,12.5282 C21.78735,12.5112 22.04835,12.6372 22.30835,12.7912 C22.34835,12.8152 22.37485,12.8622 22.40735,12.8982 C22.35735,12.9107 22.32785,12.9017 22.30085,12.8887 C21.82135,12.6587 21.34385,12.6652 20.86735,12.9007 C20.72185,12.9722 20.57335,13.0402 20.42185,13.0987 C20.26885,13.1577 20.11485,13.1812 19.94535,13.1347 C19.79085,13.0917 19.62435,13.0807 19.46285,13.0777 C19.26235,13.0742 19.09835,13.0087 18.96135,12.8652 C18.88785,12.7882 18.81585,12.7097 18.73535,12.6417 C18.53335,12.4717 18.33535,12.4782 18.14785,12.6597 C17.95585,12.8462 17.83135,13.0687 17.76335,13.3292 C17.68385,13.6362 17.58835,13.9387 17.49635,14.2427 C17.38985,14.5927 17.39935,14.9277 17.57735,15.2597 C17.66485,15.4217 17.72135,15.6032 17.76985,15.7822 C17.79535,15.8757 17.82135,15.9917 17.71085,16.0912 C17.65585,16.0667 17.59935,16.0402 17.54235,16.0152 C17.43835,15.9702 17.33785,15.9082 17.22935,15.8852 C17.04185,15.8452 16.90235,15.7482 16.79135,15.5977 C16.74285,15.5327 16.69585,15.4652 16.63985,15.4062 C16.53035,15.2887 16.40735,15.1992 16.23135,15.2592 C16.05435,15.3192 15.93785,15.4312 15.91085,15.6217 C15.89335,15.7427 15.87835,15.8642 15.86835,15.9862 C15.84685,16.2452 15.86385,16.2782 16.12035,16.3382 C16.25385,16.3687 16.31285,16.4477 16.34135,16.5667 C16.41435,16.8767 16.26085,17.2522 15.99185,17.4217 C15.86385,17.5027 15.74985,17.5017 15.62985,17.4097 C15.57835,17.3707 15.53035,17.3237 15.49235,17.2712 C15.36635,17.0942 15.20735,16.9632 15.00735,16.8742 C14.88735,16.8212 14.76485,16.7452 14.78735,16.5857 C14.80985,16.4272 14.95635,16.4307 15.07185,16.4057 C15.31985,16.3507 15.44935,16.2162 15.40135,15.9802 C15.32035,15.5887 15.20885,15.2012 14.85085,14.9532 C14.73635,14.8742 14.65935,14.7687 14.64785,14.6337 C14.62635,14.3802 14.47035,14.2592 14.24685,14.2037 C14.12935,14.1752 14.00585,14.1452 13.88635,14.1502 C13.70185,14.1582 13.51585,14.1832 13.33485,14.2222 C13.01785,14.2897 12.70335,14.3692 12.38985,14.4522 C12.28035,14.4812 12.17785,14.5352 12.07185,14.5762 C11.81935,14.6722 11.56635,14.6792 11.30685,14.5952 C11.19235,14.5577 11.06835,14.5372 10.94785,14.5347 C10.71235,14.5302 10.47485,14.5347 10.23885,14.5517 C10.00935,14.5672 9.78585,14.6232 9.60385,14.7742 C9.42185,14.9252 9.24085,15.0782 9.07485,15.2462 C8.86585,15.4567 8.85785,15.5697 8.98835,15.8342 C9.08885,16.0382 9.05735,16.1247 8.83635,16.1567 C8.59635,16.1907 8.48085,16.3247 8.43285,16.5482 C8.36935,16.8422 8.29585,17.1342 8.23135,17.4287 C8.21585,17.4992 8.21185,17.5742 8.21385,17.6467 C8.21935,17.8592 8.33235,18.0112 8.53435,18.0522 C8.66835,18.0787 8.80835,18.0787 8.94635,18.0807 C9.08435,18.0822 9.22285,18.0637 9.36135,18.0677 C9.60235,18.0737 9.70835,18.1922 9.67385,18.4272 C9.65135,18.5792 9.59635,18.7267 9.56785,18.8782 C9.54335,19.0042 9.51235,19.1362 9.52535,19.2612 C9.54135,19.4252 9.51685,19.5687 9.42585,19.7017 C9.28035,19.9137 9.27735,20.1407 9.33835,20.3812 C9.37635,20.5307 9.41335,20.6827 9.42335,20.8362 C9.44485,21.1687 9.47835,21.5072 9.31485,21.8187 C9.14085,22.1507 8.97785,22.4902 8.77585,22.8047 C8.53635,23.1777 8.42835,23.5702 8.46035,24.0097 C8.46885,24.1382 8.45335,24.2692 8.43435,24.3977 C8.40535,24.5982 8.36235,24.7972 8.32785,24.9977 C8.29385,25.1997 8.18335,25.2907 7.98885,25.2502 C7.72635,25.1962 7.46885,25.1147 7.20535,25.0707 C6.99985,25.0362 6.78335,25.0112 6.57835,25.0347 C6.23135,25.0757 6.11335,25.3077 6.23835,25.6337 C6.24685,25.6567 6.25685,25.6792 6.26885,25.7007 C6.34535,25.8322 6.31035,25.9422 6.21935,26.0572 C5.94135,26.4112 6.02685,26.7617 6.44335,26.9387 C6.69685,27.0467 6.96485,27.1222 7.22385,27.2167 C7.39185,27.2777 7.53785,27.2482 7.68585,27.1512 C7.85785,27.0377 7.90885,27.0582 8.00585,27.2427 C8.07335,27.3722 8.12285,27.5152 8.21035,27.6307 C8.41235,27.8987 8.42485,28.1592 8.25285,28.4467 C8.13035,28.6512 8.05135,28.8732 8.09985,29.1227 C8.12035,29.2267 8.07985,29.3137 7.99035,29.3767 C7.77935,29.5267 7.57235,29.6847 7.35635,29.8277 C7.19485,29.9347 7.07085,30.0667 6.98835,30.2417 C6.90935,30.4087 6.77035,30.5122 6.59285,30.5367 C6.35735,30.5697 6.19185,30.7067 6.03385,30.8632 C5.81485,31.0802 5.81985,31.2352 6.05385,31.4342 C6.17185,31.5347 6.30135,31.6222 6.41635,31.7252 C6.59135,31.8832 6.61135,32.0002 6.50235,32.2017 C6.44785,32.3012 6.38685,32.3987 6.31735,32.4887 C6.18785,32.6552 6.11585,32.6787 5.91935,32.5927 C5.75885,32.5227 5.60435,32.5177 5.44785,32.5837 C5.22385,32.6792 4.99435,32.7667 4.78285,32.8862 C4.57335,33.0052 4.37985,33.0922 4.14735,32.9502 C4.03785,32.8832 3.92185,32.8967 3.84135,33.0042 C3.74685,33.1297 3.63885,33.1182 3.51735,33.0612 C3.35285,32.9852 3.18535,32.9297 2.99835,32.9567 C2.85585,32.9777 2.74735,32.9117 2.66135,32.8002 C2.61235,32.7357 2.56585,32.6597 2.49985,32.6192 C2.43785,32.5807 2.34685,32.5587 2.27685,32.5717 C2.19035,32.5867 2.15685,32.6717 2.15735,32.7622 C2.15735,32.8382 2.15335,32.9142 2.15085,32.9902 C2.09335,32.9902 2.06635,32.9977 2.04585,32.9892 C1.86085,32.9102 1.69935,32.9502 1.54335,33.0682 C1.45985,33.1312 1.36185,33.1757 1.26835,33.2262 C1.02485,33.3587 0.99235,33.4452 1.11735,33.6947 C1.17585,33.8117 1.20435,33.9222 1.13535,34.0422 C1.06335,34.1677 1.10335,34.2597 1.22285,34.3257 C1.36385,34.4032 1.43135,34.5292 1.45085,34.6817 C1.47335,34.8547 1.55535,34.9882 1.69335,35.0902 C1.80735,35.1752 1.86135,35.2852 1.84285,35.4292 C1.82485,35.5667 1.86685,35.6882 1.95485,35.7917 C2.25735,36.1482 2.41235,36.5767 2.56235,37.0087 C2.61735,37.1687 2.61635,37.3257 2.56885,37.4887 C2.53485,37.6047 2.50035,37.7277 2.50435,37.8467 C2.51285,38.1012 2.42435,38.2982 2.24235,38.4767 C1.92585,38.7892 1.71785,39.1822 1.50085,39.5642 C1.34835,39.8322 1.41435,39.9662 1.69585,40.1007 C1.76235,40.1327 1.81785,40.1882 1.88835,40.2407 C1.83435,40.3022 1.80935,40.3497 1.76985,40.3717 C1.43635,40.5602 1.19785,40.8527 0.94235,41.1257 C0.80285,41.2747 0.79035,41.2932 0.58735,41.2017 C0.38185,41.1092 0.23085,41.2677 0.25185,41.4397 C0.27385,41.6177 0.29235,41.7957 0.32585,41.9712 C0.36585,42.1777 0.48635,42.2527 0.69835,42.2232 C0.72235,42.2202 0.74585,42.2087 0.76985,42.2057 C0.94985,42.1837 1.01585,42.2147 1.05585,42.3872 C1.08835,42.5247 1.16485,42.6152 1.26485,42.7047 C1.34135,42.7737 1.41935,42.8607 1.45035,42.9547 C1.53835,43.2212 1.45485,43.3182 1.26035,43.3702 C0.95335,43.4527 0.93535,43.7452 0.82435,43.9707 C0.92385,44.2317 1.00785,44.5007 1.13085,44.7502 C1.16485,44.8187 1.31285,44.8432 1.41335,44.8637 C1.60235,44.9017 1.73185,45.0057 1.76935,45.1887 C1.83235,45.4972 1.95835,45.7332 2.28985,45.8277 C2.42035,45.8652 2.42935,45.9747 2.33935,46.0807 C2.28635,46.1417 2.21685,46.1882 2.15735,46.2437 C2.01885,46.3742 1.93085,46.5262 1.99035,46.7227 C2.05185,46.9267 2.16185,47.0947 2.38535,47.1482 C2.47185,47.1687 2.56235,47.1737 2.65085,47.1862 C2.94835,47.2287 3.25085,47.6562 3.15485,47.9367 C3.05985,48.2117 3.04035,48.4597 3.24235,48.6912 C3.25335,48.7032 3.25985,48.7192 3.26535,48.7347 C3.31485,48.8697 3.25185,48.9767 3.10635,49.0012 C3.06635,49.0082 3.02435,49.0082 2.98435,49.0042 C2.82485,48.9887 2.70785,49.0582 2.59235,49.1627 C2.44285,49.2987 2.28185,49.4247 2.11385,49.5352 C1.93135,49.6557 1.81235,49.7997 1.80035,50.0272 C1.79535,50.1222 1.76435,50.2197 1.72785,50.3082 C1.60435,50.6087 1.46785,50.9037 1.34535,51.2042 C1.28335,51.3572 1.25835,51.5182 1.31535,51.6822 C1.42285,51.9912 1.54635,52.2887 1.74185,52.5562 C1.85035,52.7047 1.94285,52.8742 2.00185,53.0477 C2.14735,53.4752 2.43485,53.7422 2.85285,53.8897 C2.94885,53.9242 3.05985,53.9707 3.11785,54.0462 C3.25585,54.2247 3.42385,54.3342 3.64035,54.3787 C3.76585,54.4042 3.85785,54.4827 3.86185,54.6072 C3.86985,54.8772 3.86985,55.1512 3.60735,55.3307 C3.43785,55.4472 3.33335,55.6092 3.30335,55.8137 C3.27735,55.9982 3.17585,56.1417 3.07635,56.2932 C2.96635,56.4617 2.87285,56.6447 2.79535,56.8307 C2.66485,57.1442 2.84635,57.3982 2.99135,57.6492 C3.02535,57.7067 3.12635,57.7372 3.20185,57.7552 C3.64235,57.8607 4.01135,58.0467 4.13735,58.5302 C4.14735,58.5692 4.17635,58.6027 4.18735,58.6412 C4.22085,58.7642 4.24785,58.8892 4.28185,59.0117 C4.31435,59.1267 4.32035,59.2702 4.39335,59.3492 C4.65535,59.6332 4.86935,59.9422 5.04235,60.2872 C5.10485,60.4117 5.17485,60.5247 5.19235,60.6672 C5.22035,60.8932 5.50835,61.0977 5.76985,61.0892 C5.94135,61.0832 6.00685,60.9912 6.04585,60.6992 C6.04835,60.6827 6.04885,60.6667 6.05085,60.6507 C6.06735,60.5097 6.15385,60.4337 6.28535,60.4047 C6.60635,60.3327 7.06585,60.5662 7.19935,60.8702 C7.24235,60.9672 7.26885,61.0712 7.31685,61.1647 C7.37285,61.2752 7.46185,61.3442 7.59535,61.2967 C7.77335,61.2332 7.92485,61.2852 8.07935,61.3787 C8.26285,61.4892 8.46335,61.5592 8.68485,61.5252 C8.92785,61.4882 9.16235,61.4267 9.36985,61.2857 C9.45735,61.2262 9.54835,61.1687 9.64435,61.1267 C9.94785,60.9942 10.30135,61.1657 10.35885,61.4852 C10.41585,61.8062 10.60885,61.9872 10.90335,62.0772 C11.05435,62.1237 11.18635,62.1927 11.30085,62.3057 C11.41585,62.4192 11.55385,62.4642 11.72435,62.4282 C11.89885,62.3912 12.07935,62.3842 12.25685,62.3617 C12.38985,62.3447 12.51685,62.3527 12.63185,62.4307 C12.79335,62.5407 12.97435,62.5467 13.14885,62.4932 C13.32185,62.4407 13.46135,62.4787 13.61235,62.5612 C13.98935,62.7662 14.33685,63.0272 14.75935,63.1527 C14.98735,63.2202 15.02385,63.3767 14.86835,63.5677 C14.64735,63.8387 14.49135,64.1357 14.41435,64.4767 C14.36435,64.6962 14.23335,64.8567 14.03235,64.9587 C13.79185,65.0812 13.61535,65.2692 13.48735,65.5037 C13.32385,65.8007 13.11235,66.0562 12.85685,66.2772 C12.54435,66.5477 12.38035,66.8942 12.34285,67.2992 C12.31885,67.5677 12.24185,67.8077 12.07035,68.0177 C11.94235,68.1747 11.88335,68.3562 11.88185,68.5607 C11.88035,68.8132 11.86185,69.0657 11.86085,69.3182 C11.85985,69.5562 11.79735,69.7667 11.63985,69.9497 C11.58735,70.0107 11.54135,70.0797 11.50485,70.1522 C11.27785,70.6027 11.07135,71.0647 10.82485,71.5047 C10.50935,72.0672 10.47385,72.6107 10.82585,73.1662 C10.90935,73.2982 10.92235,73.4472 10.83785,73.5842 C10.62335,73.9327 10.53685,74.3162 10.49385,74.7182 C10.47885,74.8592 10.42235,75.0007 10.36285,75.1322 C10.29285,75.2847 10.24835,75.4362 10.28185,75.6042 C10.31735,75.7782 10.29585,75.9422 10.21235,76.1012 C10.10285,76.3102 10.13235,76.5167 10.26385,76.7017 C10.42435,76.9272 10.56085,77.1657 10.70585,77.3987 C10.84885,77.6272 11.09935,77.7967 11.32185,77.9657 C11.45535,78.0667 11.62335,78.0087 11.76435,77.9397 C11.96835,77.8392 12.16685,77.7262 12.36785,77.6192 C12.59885,77.4962 12.65685,77.5032 12.82735,77.7022 C12.92285,77.8137 13.03135,77.8737 13.17935,77.8962 C13.63435,77.9647 14.05085,77.8807 14.43785,77.6292 C14.62135,77.5097 14.81335,77.4022 15.00935,77.3042 C15.22485,77.1957 15.41835,77.2357 15.57685,77.4262 C15.68935,77.5602 15.82735,77.6587 15.99885,77.7047 C16.27785,77.7802 16.70535,77.7547 16.87635,77.4602 C17.03535,77.1867 17.11635,77.1712 17.42035,77.2617 C17.72235,77.3512 17.87985,77.2732 17.98885,76.9787 C18.08785,76.7137 17.96885,76.4942 17.68835,76.4637 C17.58435,76.4517 17.46935,76.4942 17.36635,76.5327 C17.26885,76.5687 17.18485,76.6397 17.08835,76.6802 C16.94285,76.7402 16.81435,76.6882 16.71135,76.5812 C16.61735,76.4837 16.61435,76.3367 16.70085,76.1962 C16.75685,76.1062 16.83935,76.0307 16.88235,75.9357 C16.99335,75.6892 17.19435,75.5722 17.44035,75.5037 C17.58885,75.4622 17.72885,75.4497 17.85335,75.5617 C17.95635,75.6547 18.07635,75.6492 18.19935,75.6237 C18.25535,75.6122 18.31735,75.5757 18.36335,75.5907 C18.44235,75.6162 18.53085,75.6597 18.57485,75.7227 C18.60085,75.7602 18.55485,75.8552 18.52635,75.9172 C18.50685,75.9592 18.45885,75.9872 18.42635,76.0237 C18.23435,76.2387 18.29535,76.4442 18.58135,76.5027 C18.85635,76.5587 19.14285,76.6592 19.37185,76.4162 C19.52285,76.4632 19.54135,76.5847 19.58835,76.6857 C19.68035,76.8847 19.78335,76.9412 19.99785,76.9017 C20.06885,76.8887 20.14085,76.8642 20.20385,76.8292 C20.60535,76.6077 21.01185,76.6207 21.42885,76.7817 C21.85385,76.9452 22.28185,77.1002 22.70835,77.2612 C22.95535,77.3537 23.13935,77.5167 23.25835,77.7552 C23.31985,77.8792 23.38485,78.0022 23.46185,78.1172 C23.67085,78.4307 23.95185,78.5177 24.31035,78.3882 C24.37935,78.3632 24.44585,78.3297 24.51585,78.3112 C24.57735,78.2947 24.64935,78.2722 24.70585,78.2892 C24.95885,78.3657 25.20685,78.3172 25.45735,78.2847 C25.72435,78.2492 25.78985,78.1942 25.85935,77.9392 C25.88285,77.8532 25.89985,77.7617 25.94335,77.6857 C25.97035,77.6382 26.04035,77.5867 26.09135,77.5867 C26.13985,77.5867 26.19335,77.6462 26.23685,77.6877 C26.25835,77.7077 26.26485,77.7452 26.27435,77.7767 C26.32985,77.9607 26.46035,78.0342 26.64435,78.0297 C26.71785,78.0277 26.79235,78.0352 26.86435,78.0257 C27.08635,77.9957 27.24135,78.0852 27.35035,78.2747 C27.44835,78.4442 27.59635,78.5542 27.78035,78.6192 C27.84135,78.6407 27.90135,78.6672 27.95835,78.6982 C28.13435,78.7927 28.18935,78.9107 28.14485,79.1017 C28.13235,79.1572 28.11135,79.2107 28.09185,79.2642 C28.03685,79.4152 28.04935,79.5577 28.16985,79.6702 C28.29885,79.7902 28.45385,79.8247 28.62285,79.7617 C28.69135,79.7357 28.75585,79.6992 28.82385,79.6727 C28.98835,79.6097 29.07135,79.6617 29.03935,79.8317 C29.00735,80.0062 28.94485,80.1757 28.88085,80.3422 C28.78435,80.5912 28.89835,80.7612 29.15935,80.7137 C29.53785,80.6452 29.88035,80.4992 30.09235,80.1507 C30.23785,79.9112 30.41585,79.7062 30.62985,79.5227 C31.01535,79.1927 31.09135,78.7472 30.86735,78.2932 C30.75535,78.0652 30.81285,77.9572 31.05985,77.9742 C31.30235,77.9922 31.51135,77.9317 31.69535,77.7787 C31.83685,77.6602 31.98785,77.6497 32.15135,77.7212 C32.33035,77.7992 32.50885,77.8792 32.68785,77.9562 C32.87735,78.0372 33.06685,78.0952 33.27985,78.0377 C33.36885,78.0137 33.46985,78.0337 33.56035,78.0337 Z" id="Stroke-1"></path>
                <path d="M46.6556,7.90555 C46.8696,7.89755 46.9001,7.86555 46.8756,7.68705 C46.7696,7.71855 46.6866,7.76255 46.6556,7.90555 Z M26.3346,6.33155 C25.9911,6.37705 25.9591,6.39655 25.9731,6.55205 C26.1166,6.52055 26.2396,6.46155 26.3346,6.33155 Z M45.4591,7.34405 C45.5346,7.69505 45.7201,7.84405 46.0801,7.85355 C45.9141,7.62555 45.7356,7.45655 45.4591,7.34405 Z M33.5606,78.03355 C33.4701,78.03355 33.3691,78.01355 33.2796,78.03805 C33.0666,78.09505 32.8771,78.03755 32.6876,77.95655 C32.5086,77.87905 32.3306,77.79905 32.1511,77.72105 C31.9876,77.64955 31.8366,77.66055 31.6951,77.77855 C31.5116,77.93205 31.3026,77.99205 31.0601,77.97455 C30.8126,77.95755 30.7551,78.06505 30.8676,78.29305 C31.0911,78.74755 31.0156,79.19255 30.6296,79.52255 C30.4161,79.70655 30.2376,79.91155 30.0921,80.15055 C29.8801,80.49905 29.5381,80.64505 29.1596,80.71355 C28.8981,80.76105 28.7846,80.59105 28.8806,80.34205 C28.9446,80.17555 29.0071,80.00605 29.0396,79.83205 C29.0711,79.66205 28.9881,79.60955 28.8241,79.67255 C28.7556,79.69905 28.6911,79.73555 28.6231,79.76155 C28.4541,79.82455 28.2986,79.79055 28.1696,79.67005 C28.0491,79.55805 28.0371,79.41555 28.0916,79.26455 C28.1111,79.21055 28.1321,79.15705 28.1451,79.10205 C28.1891,78.91105 28.1346,78.79255 27.9581,78.69805 C27.9011,78.66705 27.8411,78.64105 27.7801,78.61955 C27.5966,78.55405 27.4486,78.44405 27.3506,78.27455 C27.2416,78.08505 27.0861,77.99605 26.8646,78.02555 C26.7921,78.03555 26.7181,78.02755 26.6446,78.02955 C26.4601,78.03405 26.3301,77.96055 26.2741,77.77655 C26.2651,77.74555 26.2581,77.70755 26.2366,77.68755 C26.1931,77.64605 26.1401,77.58655 26.0911,77.58655 C26.0406,77.58655 25.9706,77.63805 25.9431,77.68605 C25.8996,77.76155 25.8826,77.85355 25.8591,77.93905 C25.7901,78.19405 25.7246,78.24905 25.4576,78.28455 C25.2071,78.31705 24.9586,78.36555 24.7061,78.28955 C24.6491,78.27205 24.5776,78.29455 24.5161,78.31155 C24.4456,78.33005 24.3791,78.36305 24.3106,78.38805 C23.9521,78.51805 23.6706,78.43105 23.4616,78.11705 C23.3851,78.00205 23.3196,77.87905 23.2581,77.75505 C23.1396,77.51705 22.9556,77.35355 22.7081,77.26105 C22.2821,77.10055 21.8536,76.94505 21.4291,76.78155 C21.0121,76.62105 20.6051,76.60755 20.2041,76.82955 C20.1411,76.86405 20.0686,76.88905 19.9981,76.90155 C19.7836,76.94105 19.6806,76.88455 19.5881,76.68605 C19.5411,76.58455 19.5226,76.46305 19.3721,76.41605 C19.1431,76.65905 18.8561,76.55905 18.5816,76.50255 C18.2951,76.44405 18.2341,76.23855 18.4266,76.02355 C18.4586,75.98705 18.5066,75.95905 18.5261,75.91705 C18.5551,75.85505 18.6011,75.76005 18.5751,75.72305 C18.5311,75.65955 18.4421,75.61605 18.3636,75.59055 C18.3171,75.57555 18.2551,75.61205 18.1996,75.62405 C18.0766,75.64905 17.9566,75.65455 17.8536,75.56155 C17.7286,75.44955 17.5886,75.46205 17.4401,75.50355 C17.1941,75.57205 16.9936,75.68905 16.8821,75.93605 C16.8391,76.03055 16.7566,76.10605 16.7011,76.19605 C16.6146,76.33655 16.6176,76.48355 16.7111,76.58155 C16.8141,76.68805 16.9426,76.74005 17.0881,76.68005 C17.1851,76.64005 17.2691,76.56855 17.3666,76.53255 C17.4696,76.49455 17.5841,76.45205 17.6881,76.46355 C17.9691,76.49455 18.0876,76.71355 17.9891,76.97855 C17.8796,77.27305 17.7226,77.35155 17.4201,77.26155 C17.1166,77.17105 17.0356,77.18655 16.8761,77.46005 C16.7056,77.75455 16.2776,77.78005 15.9991,77.70505 C15.8276,77.65855 15.6891,77.56055 15.5771,77.42605 C15.4181,77.23555 15.2251,77.19555 15.0091,77.30405 C14.8131,77.40205 14.6216,77.50955 14.4376,77.62905 C14.0506,77.88055 13.6346,77.96455 13.1796,77.89605 C13.0316,77.87405 12.9226,77.81355 12.8276,77.70255 C12.6571,77.50305 12.5991,77.49655 12.3681,77.61955 C12.1666,77.72655 11.9686,77.83905 11.7646,77.93955 C11.6236,78.00855 11.4556,78.06655 11.3221,77.96555 C11.0996,77.79655 10.8491,77.62705 10.7061,77.39855 C10.5611,77.16605 10.4241,76.92705 10.2641,76.70205 C10.1321,76.51705 10.1031,76.31055 10.2121,76.10155 C10.2956,75.94205 10.3171,75.77805 10.2821,75.60405 C10.2486,75.43655 10.2926,75.28505 10.3626,75.13205 C10.4221,75.00055 10.4786,74.85905 10.4941,74.71805 C10.5371,74.31605 10.6236,73.93305 10.8376,73.58405 C10.9221,73.44705 10.9096,73.29805 10.8261,73.16605 C10.4741,72.61055 10.5096,72.06705 10.8251,71.50455 C11.0711,71.06455 11.2776,70.60305 11.5046,70.15205 C11.5411,70.08005 11.5871,70.01055 11.6401,69.94955 C11.7971,69.76705 11.8596,69.55655 11.8606,69.31805 C11.8616,69.06555 11.8801,68.81305 11.8816,68.56105 C11.8831,68.35605 11.9421,68.17455 12.0701,68.01805 C12.2421,67.80805 12.3186,67.56755 12.3431,67.29905 C12.3801,66.89455 12.5441,66.54755 12.8566,66.27705 C13.1121,66.05655 13.3241,65.80055 13.4871,65.50355 C13.6156,65.26955 13.7916,65.08155 14.0326,64.95855 C14.2331,64.85655 14.3646,64.69605 14.4146,64.47705 C14.4916,64.13555 14.6471,63.83855 14.8686,63.56755 C15.0236,63.37655 14.9871,63.22005 14.7596,63.15255 C14.3366,63.02705 13.9896,62.76655 13.6121,62.56155 C13.4611,62.47855 13.3216,62.44055 13.1486,62.49355 C12.9746,62.54655 12.7931,62.54105 12.6316,62.43105 C12.5171,62.35305 12.3901,62.34455 12.2566,62.36155 C12.0796,62.38405 11.8986,62.39155 11.7246,62.42805 C11.5541,62.46405 11.4161,62.41905 11.3006,62.30555 C11.1866,62.19255 11.0546,62.12405 10.9031,62.07755 C10.6086,61.98705 10.4161,61.80655 10.3586,61.48505 C10.3016,61.16605 9.9481,60.99455 9.6446,61.12655 C9.5481,61.16855 9.4576,61.22655 9.3701,61.28605 C9.1626,61.42655 8.9281,61.48805 8.6851,61.52505 C8.4631,61.55955 8.2631,61.48905 8.0796,61.37855 C7.9246,61.28555 7.7731,61.23305 7.5956,61.29655 C7.4616,61.34405 7.3731,61.27505 7.3166,61.16505 C7.2691,61.07105 7.2426,60.96705 7.1996,60.87055 C7.0656,60.56605 6.6061,60.33255 6.2856,60.40455 C6.1536,60.43405 6.0671,60.50955 6.0506,60.65055 C6.0486,60.66655 6.0481,60.68305 6.0456,60.69905 C6.0066,60.99105 5.9411,61.08305 5.7701,61.08905 C5.5081,61.09805 5.2206,60.89355 5.1921,60.66705 C5.1746,60.52455 5.1046,60.41205 5.0421,60.28755 C4.8696,59.94205 4.6556,59.63305 4.3936,59.34955 C4.3201,59.27005 4.3141,59.12655 4.2821,59.01155 C4.2481,58.88905 4.2211,58.76455 4.1871,58.64155 C4.1766,58.60305 4.1471,58.56905 4.1376,58.53005 C4.0116,58.04655 3.6426,57.86055 3.2021,57.75505 C3.1261,57.73705 3.0251,57.70705 2.9916,57.64905 C2.8466,57.39805 2.6651,57.14455 2.7951,56.83105 C2.8731,56.64505 2.9661,56.46155 3.0766,56.29305 C3.1756,56.14205 3.2771,55.99855 3.3036,55.81355 C3.3331,55.60905 3.4376,55.44705 3.6071,55.33105 C3.8701,55.15105 3.8701,54.87705 3.8616,54.60705 C3.8576,54.48255 3.7661,54.40405 3.6406,54.37855 C3.4236,54.33405 3.2556,54.22505 3.1181,54.04605 C3.0601,53.97055 2.9491,53.92405 2.8531,53.89005 C2.4351,53.74205 2.1471,53.47555 2.0016,53.04755 C1.9426,52.87455 1.8506,52.70505 1.7421,52.55655 C1.5461,52.28905 1.4226,51.99105 1.3151,51.68255 C1.2581,51.51855 1.2836,51.35705 1.3456,51.20455 C1.4681,50.90355 1.6041,50.60855 1.7281,50.30855 C1.7646,50.21955 1.7951,50.12255 1.8001,50.02705 C1.8121,49.79955 1.9316,49.65555 2.1136,49.53555 C2.2821,49.42455 2.4426,49.29855 2.5921,49.16305 C2.7076,49.05855 2.8251,48.98855 2.9841,49.00405 C3.0241,49.00805 3.0661,49.00805 3.1061,49.00105 C3.2516,48.97705 3.3146,48.87005 3.2656,48.73455 C3.2601,48.71905 3.2531,48.70355 3.2426,48.69105 C3.0406,48.45955 3.0601,48.21155 3.1546,47.93705 C3.2506,47.65605 2.9486,47.22855 2.6506,47.18655 C2.5621,47.17355 2.4721,47.16855 2.3856,47.14805 C2.1621,47.09455 2.0521,46.92655 1.9906,46.72305 C1.9311,46.52605 2.0191,46.37455 2.1576,46.24405 C2.2166,46.18805 2.2866,46.14205 2.3391,46.08105 C2.4296,45.97505 2.4201,45.86505 2.2901,45.82805 C1.9581,45.73305 1.8326,45.49755 1.7696,45.18855 C1.7316,45.00555 1.6026,44.90155 1.4136,44.86355 C1.3126,44.84305 1.1651,44.81855 1.1306,44.75005 C1.0076,44.50055 0.9236,44.23155 0.8246,43.97055 C0.9356,43.74555 0.9536,43.45305 1.2606,43.37055 C1.4551,43.31805 1.5386,43.22105 1.4506,42.95505 C1.4191,42.86055 1.3411,42.77355 1.2651,42.70505 C1.1651,42.61505 1.0881,42.52455 1.0561,42.38705 C1.0161,42.21455 0.9501,42.18405 0.7701,42.20605 C0.7461,42.20855 0.7226,42.22005 0.6986,42.22355 C0.4861,42.25255 0.3661,42.17755 0.3261,41.97105 C0.2921,41.79555 0.2736,41.61755 0.2516,41.43955 C0.2306,41.26805 0.3816,41.10905 0.5871,41.20205 C0.7906,41.29305 0.8031,41.27455 0.9421,41.12555 C1.1981,40.85305 1.4366,40.56055 1.7701,40.37205 C1.8096,40.35005 1.8341,40.30205 1.8886,40.24055 C1.8176,40.18805 1.7626,40.13255 1.6956,40.10105 C1.4146,39.96605 1.3486,39.83255 1.5006,39.56405 C1.7176,39.18255 1.9256,38.78955 2.2426,38.47705 C2.4241,38.29805 2.5131,38.10155 2.5041,37.84655 C2.5001,37.72805 2.5351,37.60455 2.5686,37.48855 C2.6166,37.32555 2.6176,37.16855 2.5621,37.00855 C2.4126,36.57705 2.2571,36.14805 1.9551,35.79155 C1.8671,35.68805 1.8251,35.56655 1.8426,35.42905 C1.8611,35.28555 1.8076,35.17505 1.6931,35.09005 C1.5556,34.98805 1.4736,34.85455 1.4511,34.68205 C1.4316,34.52905 1.3641,34.40305 1.2231,34.32555 C1.1036,34.25955 1.0631,34.16755 1.1356,34.04205 C1.2046,33.92205 1.1756,33.81205 1.1176,33.69455 C0.9926,33.44505 1.0246,33.35855 1.2686,33.22655 C1.3616,33.17555 1.4596,33.13105 1.5431,33.06805 C1.6996,32.95005 1.8606,32.91055 2.0456,32.98905 C2.0661,32.99805 2.0936,32.99005 2.1506,32.99005 C2.1531,32.91455 2.1576,32.83805 2.1576,32.76205 C2.1571,32.67155 2.1901,32.58655 2.2766,32.57155 C2.3471,32.55905 2.4376,32.58105 2.4996,32.61955 C2.5656,32.66005 2.6121,32.73555 2.6616,32.80005 C2.7476,32.91205 2.8556,32.97805 2.9986,32.95705 C3.1856,32.92955 3.3531,32.98505 3.5176,33.06155 C3.6391,33.11855 3.7471,33.12955 3.8411,33.00405 C3.9216,32.89655 4.0381,32.88305 4.1471,32.95005 C4.3796,33.09205 4.5736,33.00505 4.7831,32.88605 C4.9946,32.76705 5.2241,32.67905 5.4481,32.58355 C5.6041,32.51805 5.7586,32.52255 5.9191,32.59255 C6.1161,32.67855 6.1876,32.65505 6.3171,32.48855 C6.3871,32.39855 6.4481,32.30105 6.5021,32.20155 C6.6111,32.00005 6.5911,31.88305 6.4161,31.72555 C6.3011,31.62255 6.1716,31.53505 6.0541,31.43455 C5.8196,31.23505 5.8146,31.08055 6.0341,30.86305 C6.1916,30.70705 6.3571,30.56955 6.5926,30.53705 C6.7701,30.51205 6.9096,30.40855 6.9881,30.24155 C7.0706,30.06655 7.1946,29.93505 7.3561,29.82805 C7.5726,29.68505 7.7791,29.52655 7.9906,29.37655 C8.0801,29.31355 8.1206,29.22705 8.1001,29.12305 C8.0511,28.87355 8.1301,28.65105 8.2526,28.44655 C8.4246,28.15905 8.4126,27.89855 8.2101,27.63055 C8.1231,27.51555 8.0736,27.37255 8.0056,27.24255 C7.9091,27.05855 7.8576,27.03805 7.6861,27.15105 C7.5381,27.24855 7.3921,27.27755 7.2241,27.21655 C6.9646,27.12255 6.6971,27.04655 6.4431,26.93855 C6.0266,26.76155 5.9411,26.41155 6.2196,26.05755 C6.3106,25.94205 6.3456,25.83255 6.2691,25.70055 C6.2566,25.67905 6.2471,25.65655 6.2381,25.63355 C6.1131,25.30805 6.2311,25.07555 6.5786,25.03505 C6.7836,25.01105 6.9996,25.03655 7.2056,25.07055 C7.4691,25.11455 7.7266,25.19605 7.9886,25.25005 C8.1836,25.29105 8.2936,25.19955 8.3281,24.99805 C8.3621,24.79705 8.4051,24.59855 8.4346,24.39755 C8.4536,24.26955 8.4691,24.13805 8.4601,24.00955 C8.4286,23.57005 8.5366,23.17755 8.7756,22.80455 C8.9781,22.49005 9.1411,22.15055 9.3146,21.81855 C9.4786,21.50705 9.4446,21.16855 9.4231,20.83605 C9.4136,20.68305 9.3761,20.53055 9.3381,20.38105 C9.2771,20.14105 9.2801,19.91405 9.4256,19.70205 C9.5171,19.56855 9.5411,19.42505 9.5251,19.26105 C9.5126,19.13605 9.5431,19.00405 9.5676,18.87805 C9.5966,18.72705 9.6511,18.57955 9.6736,18.42705 C9.7081,18.19205 9.6026,18.07355 9.3611,18.06755 C9.2231,18.06355 9.0841,18.08255 8.9461,18.08105 C8.8086,18.07905 8.6681,18.07905 8.5346,18.05205 C8.3326,18.01105 8.2196,17.85905 8.2136,17.64655 C8.2116,17.57405 8.2156,17.49905 8.2311,17.42855 C8.2956,17.13405 8.3696,16.84205 8.4331,16.54805 C8.4806,16.32455 8.5966,16.19055 8.8361,16.15655 C9.0576,16.12455 9.0886,16.03855 8.9881,15.83405 C8.8576,15.56955 8.8661,15.45705 9.0751,15.24655 C9.2411,15.07855 9.4216,14.92505 9.6036,14.77405 C9.7861,14.62355 10.0096,14.56705 10.2391,14.55155 C10.4751,14.53505 10.7121,14.53005 10.9481,14.53505 C11.0681,14.53755 11.1921,14.55805 11.3071,14.59505 C11.5661,14.67905 11.8191,14.67205 12.0716,14.57605 C12.1781,14.53555 12.2806,14.48105 12.3901,14.45255 C12.7036,14.36955 13.0181,14.29005 13.3346,14.22255 C13.5161,14.18355 13.7021,14.15805 13.8866,14.15005 C14.0056,14.14505 14.1291,14.17505 14.2471,14.20405 C14.4706,14.25905 14.6261,14.38005 14.6476,14.63355 C14.6596,14.76905 14.7361,14.87455 14.8511,14.95355 C15.2086,15.20105 15.3201,15.58855 15.4011,15.98005 C15.4496,16.21605 15.3196,16.35105 15.0716,16.40555 C14.9566,16.43105 14.8101,16.42705 14.7876,16.58555 C14.7651,16.74555 14.8876,16.82105 15.0071,16.87405 C15.2076,16.96305 15.3666,17.09405 15.4926,17.27105 C15.5301,17.32355 15.5786,17.37105 15.6296,17.41005 C15.7496,17.50155 15.8641,17.50255 15.9921,17.42155 C16.2611,17.25205 16.4146,16.87655 16.3411,16.56655 C16.3126,16.44755 16.2536,16.36905 16.1206,16.33805 C15.8641,16.27805 15.8471,16.24555 15.8686,15.98605 C15.8781,15.86405 15.8936,15.74255 15.9111,15.62205 C15.9376,15.43155 16.0546,15.31905 16.2311,15.25905 C16.4076,15.19905 16.5301,15.28905 16.6401,15.40605 C16.6956,15.46505 16.7431,15.53255 16.7911,15.59805 C16.9021,15.74855 17.0416,15.84505 17.2291,15.88505 C17.3376,15.90805 17.4381,15.97005 17.5421,16.01555 C17.5996,16.04055 17.6561,16.06655 17.7106,16.09105 C17.8211,15.99155 17.7951,15.87555 17.7701,15.78205 C17.7216,15.60355 17.6651,15.42155 17.5776,15.25955 C17.3991,14.92755 17.3901,14.59255 17.4966,14.24255 C17.5881,13.93855 17.6841,13.63605 17.7636,13.32955 C17.8316,13.06855 17.9561,12.84605 18.1476,12.66005 C18.3351,12.47855 18.5336,12.47155 18.7351,12.64205 C18.8156,12.70955 18.8881,12.78855 18.9611,12.86505 C19.0986,13.00855 19.2626,13.07405 19.4626,13.07805 C19.6241,13.08105 19.7911,13.09155 19.9451,13.13455 C20.1151,13.18155 20.2691,13.15755 20.4216,13.09905 C20.5736,13.04055 20.7221,12.97255 20.8676,12.90055 C21.3441,12.66555 21.8211,12.65855 22.3006,12.88855 C22.3281,12.90155 22.3571,12.91105 22.4076,12.89805 C22.3746,12.86205 22.3486,12.81505 22.3086,12.79105 C22.0481,12.63705 21.7876,12.51105 21.4621,12.52805 C21.1391,12.54555 20.8116,12.50855 20.4876,12.47805 C20.2696,12.45705 20.1211,12.30605 20.0066,12.13255 C19.9261,12.01105 19.8701,11.87405 19.7996,11.74505 C19.7221,11.60205 19.6426,11.45955 19.5616,11.31855 C19.4946,11.20305 19.4241,11.08255 19.5106,10.95455 C19.6056,10.81205 19.7576,10.77955 19.9206,10.79405 C19.9936,10.80105 20.0656,10.82155 20.1381,10.82055 C20.2816,10.81955 20.3321,10.76155 20.3201,10.62605 C20.2931,10.31705 20.0816,10.10555 19.7696,10.09455 C19.6321,10.08955 19.5351,10.03355 19.4646,9.92455 C19.3066,9.67955 19.2271,9.42955 19.3781,9.14405 C19.4376,9.03155 19.4756,8.89955 19.4891,8.77305 C19.5131,8.55855 19.3951,8.42705 19.1776,8.42855 C19.0601,8.42905 18.9301,8.45555 18.8281,8.51155 C18.6066,8.63305 18.4236,8.59355 18.2511,8.43105 C18.1746,8.35805 18.0911,8.28905 18.0321,8.20305 C17.9246,8.04705 17.9441,7.90655 18.1026,7.80155 C18.2446,7.70705 18.3056,7.60505 18.2581,7.43605 C18.2186,7.29505 18.2931,7.19355 18.4161,7.14205 C18.5201,7.09905 18.6321,7.06955 18.7436,7.05655 C19.0901,7.01505 19.4381,6.98555 19.7851,6.94655 C19.8381,6.94005 19.8956,6.91455 19.9386,6.88105 C20.0066,6.82855 19.9951,6.73755 19.9136,6.70755 C19.8391,6.68005 19.7561,6.67305 19.6761,6.66505 C19.4021,6.63555 19.2761,6.43255 19.3896,6.17805 C19.4316,6.08355 19.5036,6.00055 19.5716,5.92055 C19.7821,5.67405 19.7811,5.55255 19.5926,5.29805 C19.5231,5.20505 19.4696,5.08505 19.4541,4.97155 C19.4356,4.83305 19.3806,4.73105 19.2961,4.62505 C19.0116,4.27005 18.7216,3.91855 18.6506,3.44205 C18.6351,3.33855 18.5616,3.22705 18.4826,3.15355 C18.2241,2.91255 18.1546,2.57705 18.0241,2.27305 C18.0066,2.23205 18.0411,2.14105 18.0806,2.10855 C18.2981,1.93255 18.5331,1.81655 18.8201,1.95605 C18.9976,2.04105 19.1876,2.02855 19.3726,1.99605 C19.8566,1.91005 20.3226,1.94705 20.7896,2.11355 C21.0226,2.19655 21.2831,2.20155 21.5286,2.25255 C21.6546,2.27905 21.7801,2.31855 21.8971,2.37205 C22.0316,2.43305 22.0856,2.56355 22.1386,2.69605 C22.2436,2.96155 22.3461,2.99255 22.5831,2.84405 C22.6386,2.81005 22.6916,2.77205 22.7471,2.73705 C22.8656,2.66155 22.9906,2.63755 23.1126,2.72005 C23.2616,2.82005 23.3861,2.77605 23.5126,2.67955 C23.6161,2.60055 23.7201,2.52005 23.8326,2.45555 C23.9871,2.36805 24.0601,2.37405 24.1796,2.50555 C24.3331,2.67555 24.5271,2.76505 24.7331,2.84905 C24.9656,2.94405 25.1916,3.05655 25.4131,3.17605 C25.5916,3.27205 25.7461,3.32905 25.9176,3.15455 C26.0326,3.03855 26.1356,3.05305 26.2631,3.16805 C26.4751,3.36055 26.5731,3.60205 26.5461,3.88955 C26.5396,3.96255 26.5271,4.03555 26.5206,4.10805 C26.5111,4.21905 26.5731,4.29405 26.6546,4.35405 C26.7931,4.45605 26.8341,4.59705 26.8341,4.76055 C26.8351,5.26455 26.7876,5.75555 26.4831,6.18405 C26.4706,6.20255 26.4686,6.22855 26.4531,6.28005 C26.6441,6.24805 26.8191,6.22405 26.9921,6.18755 C27.2001,6.14455 27.3961,6.16055 27.5801,6.27405 C27.7091,6.35455 27.7971,6.45605 27.8211,6.62005 C27.8576,6.87555 27.9366,6.91805 28.1661,6.78555 C28.4141,6.64255 28.6441,6.65755 28.8831,6.78655 C28.9116,6.80205 28.9431,6.81205 28.9701,6.83055 C29.2901,7.04855 29.6451,7.18555 30.0136,7.29355 C30.2591,7.36605 30.4701,7.49855 30.6631,7.66955 C31.0616,8.02405 31.2561,8.01705 31.6071,7.62255 C31.8846,7.31005 32.2176,7.14655 32.6346,7.14255 C32.8001,7.14105 32.9601,7.10455 33.0636,6.95355 C33.1756,6.79055 33.1176,6.67105 32.9211,6.65755 C32.8806,6.65505 32.8396,6.66005 32.7991,6.65755 C32.6246,6.64655 32.5241,6.56055 32.5201,6.38355 C32.5131,6.09355 32.6066,5.83705 32.8341,5.64505 C32.9606,5.53805 33.1056,5.49955 33.2666,5.57155 C33.2886,5.58205 33.3136,5.58405 33.3361,5.59355 C34.0466,5.89005 33.9861,5.74055 34.3476,6.48005 C34.3976,6.58255 34.4611,6.67855 34.5071,6.78255 C34.5446,6.86705 34.5596,6.97255 34.4741,7.02805 C34.4161,7.06555 34.3226,7.06955 34.2496,7.05905 C34.1541,7.04455 34.0646,6.99605 33.9711,6.97055 C33.7436,6.90805 33.5916,6.94905 33.5191,7.19955 C33.4881,7.30455 33.4216,7.40705 33.3481,7.48905 C33.2421,7.60755 33.1911,7.74305 33.2016,7.89155 C33.2186,8.14255 33.2346,8.39655 33.2906,8.64105 C33.3946,9.09555 33.3311,9.30705 32.9336,9.54655 C32.6866,9.69555 32.4576,9.85555 32.2841,10.09205 C32.1781,10.23705 32.0091,10.28255 31.8416,10.33105 C31.7201,10.36555 31.5906,10.41355 31.4961,10.49255 C31.3031,10.65405 31.3071,10.89355 31.5116,11.03455 C31.7181,11.17655 31.9456,11.29005 32.1721,11.39955 C32.2796,11.45205 32.3981,11.41305 32.4971,11.34555 C32.6381,11.24905 32.7866,11.15905 32.9126,11.04505 C33.1711,10.81155 33.6816,10.79905 33.9356,11.01355 C33.9786,11.05005 34.0291,11.08005 34.0796,11.10505 C34.2131,11.17255 34.2961,11.27355 34.3131,11.42555 C34.3261,11.53605 34.3786,11.62105 34.5006,11.60305 C34.7766,11.56155 35.0121,11.64955 35.2366,11.79855 C35.3051,11.84455 35.4016,11.87805 35.4551,11.79105 C35.4921,11.73055 35.4976,11.63855 35.4856,11.56555 C35.4786,11.52355 35.4136,11.48355 35.3661,11.45855 C35.3251,11.43655 35.2706,11.44055 35.2246,11.42605 C35.0566,11.37405 35.0086,11.27105 35.0806,11.10805 C35.1496,10.95055 35.2761,10.85055 35.4331,10.78805 C35.4781,10.77005 35.5276,10.76355 35.5751,10.75155 C35.8636,10.68155 35.8636,10.68155 35.8506,10.37405 C35.8441,10.22405 35.9246,10.08955 36.0926,10.04905 C36.2801,10.00355 36.3876,9.90005 36.4521,9.72555 C36.5781,9.38655 37.2346,9.14905 37.5441,9.35305 C37.7611,9.49505 37.9511,9.45905 38.1416,9.29255 C38.3911,9.07455 38.6996,8.98955 39.0216,8.97805 C39.2606,8.96855 39.4201,8.87405 39.5291,8.66455 C39.6316,8.46605 39.7831,8.30655 39.9641,8.17505 C40.0501,8.11255 40.1301,8.04205 40.2166,7.98105 C40.5156,7.76905 40.7616,7.52105 40.8611,7.15005 C40.8921,7.03605 40.9776,6.93705 41.0356,6.82955 C41.1441,6.62905 41.2506,6.42855 41.3571,6.22755 C41.3876,6.16955 41.4096,6.10705 41.4421,6.05155 C41.5971,5.79055 41.7611,5.75205 41.9991,5.93655 C42.1356,6.04205 42.2786,6.09005 42.4501,6.08755 C42.7516,6.08305 43.0541,6.10155 43.3551,6.09055 C43.5326,6.08455 43.7076,6.03655 43.8851,6.01605 C44.2476,5.97355 44.5686,6.03205 44.8321,6.32905 C44.9626,6.47605 45.1451,6.59305 45.3256,6.67655 C45.5191,6.76605 45.7241,6.67805 45.9136,6.60655 C45.9896,6.57805 45.9886,6.50255 45.9446,6.44255 C45.9166,6.40405 45.8756,6.37305 45.8341,6.34855 C45.7711,6.31155 45.7036,6.28405 45.6371,6.25255 C45.2456,6.07005 45.2006,5.93905 45.3731,5.54655 C45.4246,5.42955 45.4591,5.30005 45.4761,5.17255 C45.5016,4.97855 45.5821,4.83205 45.7671,4.75555 C45.9031,4.69905 45.9951,4.60305 46.0456,4.46555 C46.1061,4.30205 46.0851,4.22605 45.9456,4.10755 C45.8151,3.99805 45.8041,3.93705 45.8931,3.79755 C45.9151,3.76405 45.9396,3.72855 45.9711,3.70455 C46.2286,3.50605 46.5136,3.37355 46.8456,3.37755 C47.0826,3.38055 47.1771,3.51805 47.0766,3.73205 C46.9836,3.92955 46.8691,4.11905 46.7476,4.30055 C46.6261,4.48155 46.6246,4.50405 46.7376,4.69155 C46.8676,4.90555 47.0426,5.07255 47.2351,5.22505 C47.3721,5.33255 47.4591,5.31055 47.5051,5.14505 C47.5351,5.03805 47.5366,4.92055 47.5366,4.80805 C47.5366,4.55005 47.6046,4.43355 47.8401,4.33605 C47.9306,4.29905 48.0241,4.27005 48.1181,4.24505 C48.3506,4.18105 48.5161,4.24905 48.6366,4.45105 C48.7586,4.65605 48.7611,4.89355 48.6026,5.03755 C48.3636,5.25255 48.1451,5.50755 47.7916,5.55155 C47.6791,5.56555 47.5956,5.63405 47.5971,5.76405 C47.5986,5.89355 47.7096,6.01205 47.8401,6.02905 C47.8561,6.03155 47.8731,6.03405 47.8886,6.03105 C48.3731,5.94605 48.7181,6.25155 49.0911,6.46755 C49.2971,6.58655 49.3646,6.77905 49.2931,7.01605 C49.2636,7.11655 49.2601,7.22505 49.2361,7.32805 C49.2011,7.48005 49.0961,7.57605 48.9731,7.57755 C48.8496,7.57855 48.7501,7.48255 48.7141,7.32705 C48.6441,7.02455 48.4846,6.93005 48.1866,7.03855 C48.0176,7.10005 47.8541,7.14955 47.6716,7.16605 C47.4126,7.18855 47.2611,7.44505 47.3191,7.70605 C47.3956,8.04755 47.3201,8.16705 46.9716,8.27555 C46.9241,8.29055 46.8576,8.33155 46.8521,8.36805 C46.8451,8.41105 46.8841,8.48955 46.9231,8.50605 C47.1746,8.61355 47.3011,8.82355 47.4221,9.05155 C47.5291,9.25255 47.6276,9.26605 47.8441,9.16405 C48.1086,9.03905 48.3751,8.91705 48.6411,8.79405 C48.7701,8.73455 48.8971,8.70655 49.0416,8.75105 C49.1816,8.79455 49.3061,8.76205 49.4216,8.65255 C49.5976,8.48605 49.7131,8.50855 49.8541,8.71505 C49.9236,8.81555 49.9796,8.92505 50.0456,9.02805 C50.1601,9.20755 50.3126,9.32405 50.5336,9.35805 C50.8756,9.41155 51.1541,9.60205 51.4021,9.83005 C51.6781,10.08405 51.9386,10.35405 52.2051,10.61905 C52.3721,10.78505 52.4211,10.99755 52.4296,11.22255 C52.4376,11.44405 52.3696,11.54355 52.1556,11.58805 C51.9971,11.62155 51.8331,11.64605 51.6716,11.64505 C51.4581,11.64405 51.2771,11.69905 51.1026,11.82405 C51.0011,11.89655 50.8636,11.91605 50.7471,11.96955 C50.6846,11.99805 50.6066,12.03405 50.5796,12.08855 C50.5371,12.17255 50.6036,12.24255 50.6736,12.29105 C50.9966,12.51905 51.3426,12.69805 51.7346,12.76855 C51.9326,12.80405 52.1181,12.75605 52.2946,12.64805 C52.5841,12.47155 52.7411,12.52955 52.8481,12.84755 C52.9596,13.17905 53.0711,13.51155 53.1621,13.84955 C53.2056,14.01205 53.2146,14.18705 53.2151,14.35605 C53.2156,14.54055 53.2561,14.70905 53.3236,14.87805 C53.5141,15.35405 53.7001,15.83255 53.8826,16.31155 C53.9316,16.44055 53.9756,16.57505 53.9961,16.71055 C54.0341,16.96255 54.0831,17.20305 54.2316,17.42105 C54.3451,17.58705 54.3536,17.79455 54.2341,17.95405 C53.9981,18.26805 53.9681,18.61355 54.0266,18.97605 C54.1316,19.62255 53.8431,20.09555 53.3801,20.49605 C53.2571,20.60255 53.1256,20.70005 52.9961,20.79805 C52.8201,20.93105 52.7506,21.09805 52.8176,21.31255 C52.8681,21.47255 52.8646,21.62855 52.8261,21.79305 C52.7701,22.03005 52.8146,22.08955 53.0256,22.19855 C53.1621,22.26905 53.2896,22.35705 53.4186,22.44055 C53.6581,22.59605 53.8901,22.76255 54.1351,22.90705 C54.3461,23.03105 54.5166,23.18205 54.6146,23.41005 C54.7321,23.68155 54.9506,23.84155 55.2181,23.94855 C55.4531,24.04255 55.6751,24.15555 55.8606,24.33855 C56.0436,24.51955 56.1121,24.71055 56.0011,24.95405 C55.9411,25.08505 55.9401,25.22155 55.9881,25.35905 C56.0706,25.59755 56.0151,25.80805 55.8541,25.99655 C55.8331,26.02055 55.8166,26.05005 55.7941,26.07305 C55.5631,26.31305 55.5151,26.56555 55.6911,26.86905 C55.7791,27.02005 55.8096,27.20605 55.8661,27.37555 C55.9336,27.57855 56.0681,27.70455 56.2791,27.74955 C56.3426,27.76255 56.4061,27.77805 56.4666,27.80005 C56.7836,27.91355 56.8621,28.06905 56.8251,28.39705 C56.7986,28.62805 56.7961,28.86705 56.8226,29.09805 C56.8351,29.20605 56.9216,29.32705 57.0096,29.40005 C57.3576,29.68855 57.3396,30.04955 57.1646,30.39255 C57.0691,30.57905 57.0081,30.76805 57.0341,30.97905 C57.0761,31.32605 56.9606,31.62105 56.7326,31.87705 C56.7216,31.88955 56.7116,31.90205 56.7016,31.91505 C56.4331,32.23955 56.4371,32.30055 56.6841,32.63205 C56.7846,32.76805 56.8676,32.92055 56.9346,33.07605 C57.0146,33.26005 57.1066,33.42455 57.2841,33.53255 C57.4376,33.62555 57.5296,33.76605 57.5696,33.94205 C57.5931,34.04505 57.6291,34.14505 57.6541,34.24855 C57.6996,34.43705 57.6851,34.61305 57.5746,34.78605 C57.4006,35.05905 57.4336,35.19155 57.7026,35.37555 C57.8231,35.45805 57.9536,35.52655 58.0796,35.60205 C58.2366,35.69555 58.4026,35.74155 58.5896,35.74255 C58.9596,35.74505 59.1116,35.91105 59.0336,36.26655 C58.9671,36.56805 59.0386,36.82955 59.1601,37.09205 C59.2721,37.33605 59.3901,37.57805 59.5011,37.82255 C59.5966,38.03105 59.6046,38.24305 59.5411,38.46555 C59.5016,38.60455 59.4716,38.75655 59.4846,38.89805 C59.5306,39.39055 59.4191,39.85205 59.2656,40.31205 C59.1756,40.58155 59.1196,40.86205 59.0336,41.13305 C58.9801,41.30255 58.9146,41.47155 58.8286,41.62605 C58.7366,41.79205 58.6486,41.95305 58.6366,42.14755 C58.6321,42.22005 58.6111,42.29305 58.5861,42.36155 C58.4976,42.60255 58.2851,42.69155 58.0821,42.59255 C57.9146,42.51105 57.7326,42.45905 57.5596,42.39005 C57.3796,42.31805 57.3401,42.24755 57.3591,42.05105 C57.3856,41.78155 57.3881,41.77355 57.1301,41.67605 C56.9971,41.62505 56.9476,41.54255 56.9776,41.41455 C57.0431,41.12705 56.9006,40.94805 56.6776,40.80555 C56.6231,40.77005 56.5666,40.73605 56.5146,40.69705 C56.3266,40.55605 56.1371,40.51955 55.9321,40.66805 C55.8236,40.74755 55.7036,40.74205 55.5851,40.67705 C55.5071,40.63355 55.4286,40.58855 55.3456,40.55705 C55.1701,40.49005 55.0201,40.52805 54.9261,40.65205 C54.8291,40.78105 54.8201,40.97555 54.9391,41.10505 C55.0871,41.26655 55.2576,41.40655 55.4201,41.55355 C55.4501,41.58005 55.4926,41.59205 55.5256,41.61505 C55.7191,41.74905 55.7081,41.89155 55.4936,41.99755 C55.4136,42.03705 55.3281,42.06955 55.2416,42.08955 C55.0346,42.13805 54.8741,42.24755 54.7336,42.40655 C54.4696,42.70555 54.1156,42.88205 53.7691,43.06055 C53.6661,43.11305 53.5316,43.10255 53.4121,43.12305 C53.2926,43.14355 53.1676,43.14955 53.0561,43.19105 C52.8376,43.27105 52.6926,43.42155 52.6391,43.66255 C52.5766,43.94405 52.4871,43.99705 52.1981,44.01805 C52.0211,44.03055 51.8466,44.07255 51.6711,44.10405 C51.6161,44.11455 51.5616,44.15155 51.5076,44.14855 C51.1836,44.13105 50.8841,44.25005 50.5736,44.30705 C50.3171,44.35355 50.2566,44.41705 50.2551,44.68155 C50.2536,44.89505 50.2036,45.08405 50.0506,45.23905 C49.8886,45.40305 49.7516,45.42405 49.5451,45.31605 C49.2976,45.18655 49.2321,45.19705 49.1001,45.44105 C48.9986,45.62905 48.8861,45.75805 48.6456,45.72805 C48.5091,45.71055 48.4156,45.80705 48.3736,45.93205 C48.3401,46.03105 48.3316,46.13855 48.3111,46.24205 C48.2651,46.47205 48.1591,46.55205 47.9251,46.56955 C47.7146,46.58505 47.5051,46.61505 47.2976,46.65105 C47.1316,46.68005 47.0706,46.76405 47.0501,46.93705 C47.0351,47.06505 47.0361,47.20155 46.9906,47.31855 C46.8766,47.61055 46.6391,47.69155 46.3606,47.55405 C46.2586,47.50305 46.1596,47.44605 46.0561,47.39805 C45.8506,47.30305 45.6471,47.30255 45.4506,47.42655 C45.3606,47.48305 45.2736,47.54905 45.1766,47.58655 C45.0271,47.64455 44.8716,47.68705 44.7156,47.72555 C44.4876,47.78205 44.2506,47.81155 44.0301,47.88655 C43.9156,47.92555 43.8226,48.03555 43.7271,48.12105 C43.6061,48.22855 43.4921,48.34405 43.3771,48.45805 C43.3091,48.52605 43.2226,48.58855 43.1831,48.67155 C43.0286,48.99455 42.8901,49.32405 42.7446,49.65105 C42.7021,49.74705 42.6681,49.85055 42.6076,49.93455 C42.5341,50.03805 42.4401,50.03905 42.3651,49.93805 C42.3031,49.85505 42.2546,49.75605 42.2256,49.65655 C42.1756,49.49055 42.0811,49.37605 41.9361,49.28105 C41.8231,49.20705 41.7411,49.08805 41.6371,48.99955 C41.5866,48.95605 41.5171,48.91455 41.4556,48.91405 C41.4271,48.91405 41.3896,49.01005 41.3706,49.06705 C41.3321,49.18205 41.3106,49.30205 41.2696,49.41555 C41.2101,49.58005 41.2221,49.65255 41.3651,49.74955 C41.4526,49.80805 41.5511,49.84955 41.6451,49.89855 C41.9011,50.03455 41.9646,50.17955 41.8911,50.46205 C41.8786,50.50955 41.8611,50.55555 41.8476,50.60255 C41.8081,50.74155 41.8481,50.85355 41.9501,50.95655 C42.3191,51.32905 42.7311,51.64505 43.1811,51.91155 C43.2856,51.97355 43.3991,52.02055 43.5126,52.06455 C43.6856,52.13255 43.8026,52.23855 43.8251,52.43405 C43.8406,52.57005 43.9191,52.66955 44.0226,52.75905 C44.2506,52.95705 44.2681,53.08955 44.1146,53.35655 C44.0536,53.46255 43.9731,53.56005 43.9286,53.67155 C43.8851,53.78155 43.8521,53.90555 43.8571,54.02155 C43.8641,54.16555 43.8341,54.27755 43.7271,54.37055 C43.7141,54.38055 43.7036,54.39355 43.6921,54.40505 C43.4151,54.68955 43.4406,54.84305 43.7976,55.03605 C43.8551,55.06655 43.9151,55.09355 43.9716,55.12505 C44.1071,55.20155 44.1961,55.30955 44.2121,55.47105 C44.2286,55.62905 44.3016,55.76105 44.3926,55.89205 C44.4886,56.03105 44.5516,56.19255 44.6336,56.34155 C44.7236,56.50405 44.8056,56.67355 44.9156,56.82255 C45.0211,56.96555 45.1021,57.11005 45.0976,57.29005 C45.0906,57.58455 45.2216,57.77955 45.4926,57.90005 C45.6896,57.98805 45.8461,58.14155 45.9511,58.32905 C46.0881,58.57405 46.2941,58.65655 46.5471,58.58955 C47.0096,58.46705 47.3646,58.64805 47.6656,58.96555 C47.8661,59.17755 48.0376,59.41655 48.2201,59.64505 C48.2861,59.72805 48.3361,59.82655 48.4131,59.89655 C48.6296,60.09755 48.8256,60.31205 48.9696,60.57305 C49.0471,60.71355 49.1871,60.76955 49.3436,60.76105 C49.8346,60.73505 50.1496,61.01105 50.4161,61.37455 C50.5166,61.51105 50.5526,61.66405 50.5471,61.83405 C50.5371,62.15105 50.8606,62.39905 51.1726,62.32205 C51.6471,62.20555 51.8646,62.28755 52.1406,62.70755 C52.2651,62.89705 52.4096,63.02855 52.6546,63.01755 C52.8131,63.01005 52.9386,63.09305 53.0221,63.22305 C53.1676,63.44905 53.3121,63.67605 53.4401,63.91205 C53.5561,64.12505 53.5801,64.35505 53.5331,64.60005 C53.5101,64.72155 53.5136,64.87155 53.5641,64.97955 C53.7826,65.44255 53.6356,65.85405 53.4156,66.25655 C53.3216,66.42755 53.1991,66.58255 53.0861,66.74205 C52.9426,66.94455 52.7771,66.98805 52.5896,66.83005 C52.3306,66.61155 52.0236,66.51455 51.7131,66.41705 C51.3666,66.30905 51.0156,66.61455 51.1056,66.96355 C51.1681,67.20455 51.1531,67.42505 51.0801,67.65855 C51.0341,67.80355 51.0136,67.96405 51.0206,68.11605 C51.0371,68.45005 50.8971,68.69805 50.6501,68.90105 C50.2136,69.25955 49.7256,69.51155 49.1661,69.60405 C48.7566,69.67205 48.4071,69.84505 48.1231,70.14505 C47.9776,70.29805 47.8111,70.40455 47.6006,70.43505 C47.4386,70.45755 47.3281,70.54655 47.2741,70.69505 C47.1846,70.94455 47.0161,71.12455 46.8036,71.27255 C46.7571,71.30505 46.7131,71.34405 46.6776,71.38755 C46.5486,71.54405 46.5526,71.70755 46.7031,71.84305 C46.7926,71.92355 46.9001,71.98705 47.0061,72.04605 C47.1606,72.13305 47.2686,72.25355 47.3601,72.40655 C47.4511,72.55755 47.5601,72.70805 47.6931,72.82005 C47.9931,73.07105 48.1616,73.40005 48.3101,73.74655 C48.3886,73.92955 48.3716,74.11405 48.2876,74.29105 C48.2351,74.40155 48.1771,74.50905 48.1181,74.61605 C48.0591,74.72355 47.9926,74.82655 47.9346,74.93405 C47.8731,75.04855 47.7916,75.17355 47.9041,75.29305 C48.0046,75.40105 48.1266,75.34555 48.2436,75.29855 C48.5151,75.18955 48.6746,75.21605 48.8441,75.44955 C48.9761,75.63155 49.0711,75.84205 49.1686,76.04655 C49.2321,76.18055 49.2001,76.32005 49.1296,76.44605 C49.0861,76.52405 49.0341,76.59805 48.9816,76.67055 C48.8531,76.84805 48.8261,77.04255 48.8761,77.25205 C48.8896,77.30755 48.9051,77.36255 48.9176,77.41805 C48.9991,77.78005 48.7216,78.06455 48.3581,77.99205 C48.1066,77.94155 47.8776,77.84605 47.6781,77.68005 C47.5091,77.53955 47.3356,77.40305 47.1571,77.27505 C46.9541,77.12905 46.8321,76.95605 46.9086,76.69405 C46.9436,76.57255 46.9046,76.46955 46.8316,76.37455 C46.7961,76.33005 46.7596,76.28655 46.7231,76.24205 C46.4491,75.90855 46.0421,75.88405 45.7256,76.18355 C45.6601,76.24505 45.6031,76.31455 45.5376,76.37605 C45.2936,76.60405 45.0286,76.62305 44.7661,76.41855 C44.6776,76.35005 44.5906,76.26505 44.5376,76.16855 C44.3876,75.89805 44.1591,75.82855 43.8761,75.87355 C43.7881,75.88705 43.6996,75.90505 43.6151,75.93405 C43.4226,75.99955 43.2496,76.00505 43.1096,75.82405 C43.0376,75.73005 42.9526,75.75455 42.8801,75.83005 C42.7591,75.95605 42.7446,76.10305 42.8116,76.25955 C42.8496,76.34955 42.9021,76.43405 42.9321,76.52605 C42.9881,76.70155 42.9236,76.84655 42.7461,76.88855 C42.6001,76.92305 42.4411,76.92905 42.2911,76.91505 C42.1141,76.89855 41.9416,76.83755 41.7651,76.81205 C41.3786,76.75705 41.0231,76.86855 40.6816,77.03605 C40.6011,77.07555 40.5236,77.12155 40.4426,77.15955 C40.2406,77.25355 40.0371,77.30055 39.8056,77.25955 C39.5666,77.21755 39.3181,77.19955 39.0821,77.29705 C38.8766,77.38155 38.7166,77.50805 38.6601,77.73705 C38.5921,78.01255 38.3841,78.10355 38.1301,78.12255 C38.0171,78.13105 37.9016,78.11555 37.7881,78.12205 C37.6021,78.13205 37.5416,78.19855 37.5406,78.38055 C37.5406,78.42105 37.5461,78.46205 37.5461,78.50255 C37.5456,78.71055 37.4936,78.78005 37.2916,78.77005 C37.0556,78.75955 36.8846,78.85505 36.7436,79.03105 C36.7031,79.08205 36.6591,79.13105 36.6091,79.17255 C36.4596,79.29755 36.3081,79.32155 36.1661,79.19505 C35.9701,79.02005 35.7756,79.02955 35.5581,79.12655 C35.3241,79.23105 35.0801,79.27305 34.8206,79.26355 C34.5796,79.25405 34.4211,79.14855 34.3266,78.93305 C34.2936,78.85855 34.2616,78.78355 34.2211,78.71255 C34.1501,78.58805 34.0541,78.48805 33.9081,78.45855 C33.7156,78.42005 33.6051,78.31605 33.5971,78.11405 C33.5961,78.09155 33.5776,78.07005 33.5606,78.03355 Z" id="Stroke-3" stroke-linecap="round"></path>
                <path d="M17.72395,2.1961 C17.56545,2.4181 17.36895,2.5516 17.09295,2.5461 C17.03645,2.5451 16.97945,2.5376 16.92295,2.5291 C16.66945,2.4926 16.53545,2.6151 16.55795,2.8706 C16.56645,2.9676 16.59295,3.0626 16.60045,3.1596 C16.60545,3.2236 16.60845,3.2971 16.58045,3.3506 C16.55395,3.4011 16.48945,3.4566 16.43745,3.4621 C16.38595,3.4671 16.30395,3.4241 16.27945,3.3786 C16.23995,3.3036 16.22095,3.2096 16.21895,3.1231 C16.21245,2.8221 16.20645,2.5206 16.21895,2.2201 C16.23395,1.8746 16.33995,1.5511 16.48245,1.2371 C16.55545,1.0756 16.61145,0.9066 16.67545,0.7411 C16.71345,0.6431 16.73745,0.5366 16.79045,0.4476 C16.93095,0.2116 17.19895,0.1856 17.38895,0.3786 C17.49045,0.4826 17.51595,0.5946 17.42195,0.7061 C17.32395,0.8216 17.20695,0.9311 17.07595,1.0051 C16.90895,1.1006 16.84245,1.2176 16.87745,1.4036 C16.89195,1.4826 16.88995,1.5656 16.89645,1.6466 C16.91845,1.9281 17.02395,2.0366 17.30745,2.0581 C17.45145,2.0691 17.59795,2.0646 17.72395,2.1961 Z" id="Stroke-5"></path>
                <path d="M16.8055,3.9832 C16.8395,3.7487 16.986,3.6122 17.2035,3.5452 C17.3425,3.5022 17.4835,3.4657 17.6265,3.4367 C17.9695,3.3682 18.2035,3.5787 18.164,3.9267 C18.152,4.0292 18.119,4.1332 18.0755,4.2272 C17.9895,4.4132 17.86,4.4747 17.661,4.4432 C17.333,4.3902 17.035,4.2782 16.8055,3.9832 Z" id="Stroke-7"></path>
                <path d="M18.44565,6.3714 C18.22265,6.3679 18.08115,6.2739 18.03315,6.1094 C17.98865,5.9559 18.05465,5.8164 18.23115,5.7089 C18.33465,5.6464 18.43965,5.5814 18.55215,5.5389 C18.75015,5.4639 18.90465,5.5644 18.89365,5.7709 C18.88515,5.9124 18.84515,6.0579 18.79015,6.1899 C18.72665,6.3429 18.58265,6.3819 18.44565,6.3714 Z" id="Stroke-9"></path>
                <path d="M16.73955,4.03595 C16.80855,4.20295 16.86705,4.34445 16.92405,4.48645 C16.95455,4.56195 16.98405,4.63745 17.01055,4.71445 C17.05455,4.84295 17.02905,4.95845 16.92255,5.04445 C16.81505,5.13145 16.70605,5.08495 16.60405,5.02745 C16.47655,4.95645 16.38755,4.84495 16.37155,4.70145 C16.35505,4.55745 16.35205,4.40695 16.37505,4.26445 C16.40905,4.06245 16.51855,4.00545 16.73955,4.03595 Z" id="Stroke-11"></path>
                <path d="M18.11215,4.9998 C18.08565,4.9978 18.04465,5.0063 18.02315,4.9893 C17.96915,4.9483 17.89915,4.9028 17.88265,4.8453 C17.87065,4.8018 17.91765,4.7053 17.96065,4.6883 C18.18065,4.6003 18.38015,4.4823 18.57265,4.3458 C18.65315,4.2888 18.73115,4.3353 18.74715,4.4353 C18.77065,4.5838 18.71465,4.7103 18.60665,4.8063 C18.46915,4.9283 18.30315,4.9903 18.11215,4.9998 Z" id="Stroke-13"></path>
                <path d="M17.1673,6.67265 C17.1938,6.62615 17.2198,6.51865 17.2883,6.47315 C17.3903,6.40415 17.4858,6.48665 17.5653,6.56015 C17.5828,6.57715 17.5993,6.59515 17.6143,6.61465 C17.6878,6.70965 17.7328,6.81515 17.6673,6.92865 C17.6143,7.02065 17.5208,7.05465 17.4158,7.03815 C17.2898,7.01865 17.2028,6.92515 17.1813,6.79265 C17.1778,6.76865 17.1758,6.74515 17.1673,6.67265 Z" id="Stroke-15"></path>
                <path d="M17.76985,5.2327 C17.83935,5.3287 17.89435,5.3767 17.91135,5.4352 C17.93185,5.5077 17.87935,5.5632 17.80435,5.5662 C17.71985,5.5692 17.66185,5.5137 17.66785,5.4307 C17.67185,5.3792 17.71785,5.3302 17.76985,5.2327 Z" id="Stroke-17"></path>
                <path d="M45.4593,7.34405 C45.7358,7.45655 45.9138,7.62555 46.0798,7.85405 C45.7198,7.84405 45.5343,7.69505 45.4593,7.34405 Z" id="Stroke-19"></path>
                <path d="M26.3348,6.33135 C26.2398,6.46185 26.1163,6.52085 25.9728,6.55185 C25.9593,6.39685 25.9913,6.37735 26.3348,6.33135 Z" id="Stroke-21"></path>
                <path d="M46.6556,7.90555 C46.6866,7.76255 46.7696,7.71855 46.8756,7.68705 C46.9001,7.86555 46.8696,7.89755 46.6556,7.90555 Z" id="Stroke-23"></path>
            </g>
        </g>
    </g>
</svg>