<?xml version="1.0" encoding="UTF-8"?>
<svg width="73px" height="68px" viewBox="0 0 73 68" version="1.1" xmlns="http://www.w3.org/2000/svg" xmlns:xlink="http://www.w3.org/1999/xlink">
    <!-- Generator: Sketch 53.2 (72643) - https://sketchapp.com -->
    <title>Group 27</title>
    <desc>Created with Sketch.</desc>
    <g id="Symbols" stroke="none" stroke-width="1" fill="none" fill-rule="evenodd">
        <g id="USP-Hund-NaFu-3" transform="translate(-45.000000, -42.000000)" stroke="#555555" stroke-width="2">
            <g id="Group-27" transform="translate(45.000000, 43.000000)">
                <path d="M29.1503297,42.6140776 C25.6085484,40.5401983 21.4879547,40.4610603 17.8818609,41.9297672 C18.4308141,45.8284741 20.5600172,49.4036466 24.1017984,51.4775259 C27.6435797,53.54675 31.7641734,53.6258879 35.3702672,52.1618362 C34.8213141,48.2631293 32.6921109,44.6879569 29.1503297,42.6140776 Z" id="Stroke-1"></path>
                <path d="M43.5306047,42.6140776 C47.0723859,40.5401983 51.1929797,40.4610603 54.7990734,41.9297672 C54.2478234,45.8284741 52.1209172,49.4036466 48.5791359,51.4775259 C45.0373547,53.54675 40.9167609,53.6258879 37.3106672,52.1618362 C37.8596203,48.2631293 39.9888234,44.6879569 43.5306047,42.6140776 Z" id="Stroke-3"></path>
                <path d="M29.1503297,31.373931 C25.6085484,29.3000517 21.4879547,29.2209138 17.8818609,30.6872931 C18.4308141,34.586 20.5600172,38.1611724 24.1017984,40.2350517 C27.6435797,42.3066034 31.7641734,42.3857414 35.3702672,40.9216897 C34.8213141,37.0206552 32.6921109,33.4454828 29.1503297,31.373931 Z" id="Stroke-5"></path>
                <path d="M43.5306047,31.373931 C47.0723859,29.3000517 51.1929797,29.2209138 54.7990734,30.6872931 C54.2478234,34.586 52.1209172,38.1611724 48.5791359,40.2350517 C45.0373547,42.3066034 40.9167609,42.3857414 37.3106672,40.9216897 C37.8596203,37.0206552 39.9888234,33.4454828 43.5306047,31.373931 Z" id="Stroke-7"></path>
                <path d="M29.1503297,20.1314569 C25.6085484,18.0575776 21.4879547,17.9807672 17.8818609,19.4471466 C18.4308141,23.3458534 20.5600172,26.9210259 24.1017984,28.9949052 C27.6435797,31.0641293 31.7641734,31.1432672 35.3702672,29.6792155 C34.8213141,25.7805086 32.6921109,22.2053362 29.1503297,20.1314569 Z" id="Stroke-9"></path>
                <path d="M43.5306047,20.1314569 C47.0723859,18.0575776 51.1929797,17.9807672 54.7990734,19.4471466 C54.2478234,23.3458534 52.1209172,26.9210259 48.5791359,28.9949052 C45.0373547,31.0641293 40.9167609,31.1432672 37.3106672,29.6792155 C37.8596203,25.7805086 39.9888234,22.2053362 43.5306047,20.1314569 Z" id="Stroke-11"></path>
                <path d="M31.292625,10.712181 C31.292625,6.56675 33.2840156,2.91243966 36.3388594,0.480112069 C39.396,2.91243966 41.3896875,6.56675 41.3896875,10.712181 C41.3896875,14.8576121 39.396,18.5119224 36.3388594,20.94425 C33.2840156,18.5119224 31.292625,14.8576121 31.292625,10.712181 Z" id="Stroke-13"></path>
                <path d="M46.6102547,6.60236207 L46.6102547,18.4474483" id="Stroke-15"></path>
                <path d="M52.2155484,6.60236207 L52.2155484,18.4474483" id="Stroke-17"></path>
                <path d="M20.4653859,6.60236207 L20.4653859,18.4474483" id="Stroke-19"></path>
                <path d="M26.0706797,6.60236207 L26.0706797,18.4474483" id="Stroke-21"></path>
                <path d="M36.3393187,51.9220948 L36.3393187,66.3647672" id="Stroke-23"></path>
                <path d="M72.1517344,14.5694569 L0.52828125,52.2763534" id="Stroke-25"></path>
            </g>
        </g>
    </g>
</svg>