<?xml version="1.0" encoding="utf-8"?>
<svg version="1.1" id="Ebene_1" x="0px" y="0px" viewBox="4.51 4.92 143 16.5" xmlns="http://www.w3.org/2000/svg" xmlns:bx="https://boxy-svg.com">
  <defs>
    <bx:grid x="-0.354" y="-0.861" width="151" height="24.962"/>
  </defs>
  <style type="text/css">
	.st0{fill:#131313;}
</style>
  <g id="Gruppe_155" transform="translate(-1075 -20.172)">
    <g id="Gruppe_153" transform="translate(1075 20.172)">
      <rect id="Rechteck_349" x="4.51" y="4.92" class="st0" width="2.22" height="16.5"/>
      <rect id="Rechteck_350" x="10.44" y="4.92" class="st0" width="2.22" height="16.5"/>
      <rect id="Rechteck_351" x="44.33" y="4.92" class="st0" width="2.22" height="16.5"/>
      <rect id="Rechteck_352" x="91.62" y="4.92" class="st0" width="2.22" height="16.5"/>
      <rect id="Rechteck_353" x="109.11" y="4.92" class="st0" width="2.22" height="16.5"/>
      <rect id="Rechteck_354" x="142.23" y="4.92" class="st0" width="2.22" height="16.5"/>
      <rect id="Rechteck_355" x="139.75" y="4.92" class="st0" width="1.6" height="16.5"/>
      <rect id="Rechteck_356" x="137.78" y="4.92" class="st0" width="0.73" height="16.5"/>
      <rect id="Rechteck_357" x="134.9" y="4.92" class="st0" width="0.39" height="16.5"/>
      <rect id="Rechteck_358" x="78.9" y="4.92" class="st0" width="0.39" height="16.5"/>
      <rect id="Rechteck_359" x="72.47" y="4.92" class="st0" width="0.39" height="16.5"/>
      <rect id="Rechteck_360" x="69.62" y="4.92" class="st0" width="0.39" height="16.5"/>
      <rect id="Rechteck_361" x="51.01" y="4.92" class="st0" width="0.73" height="16.5"/>
      <rect id="Rechteck_362" x="32.84" y="4.92" class="st0" width="0.73" height="16.5"/>
      <rect id="Rechteck_363" x="8.22" y="4.92" class="st0" width="0.73" height="16.5"/>
      <rect id="Rechteck_364" x="66.57" y="4.92" class="st0" width="0.39" height="16.5"/>
      <rect id="Rechteck_365" x="38.57" y="4.92" class="st0" width="0.39" height="16.5"/>
      <rect id="Rechteck_366" x="14.97" y="4.92" class="st0" width="0.39" height="16.5"/>
      <rect id="Rechteck_367" x="135.85" y="4.92" class="st0" width="0.39" height="16.5"/>
      <rect id="Rechteck_368" x="136.59" y="4.92" class="st0" width="0.39" height="16.5"/>
      <rect id="Rechteck_369" x="105.02" y="4.92" class="st0" width="0.39" height="16.5"/>
      <rect id="Rechteck_370" x="102.64" y="4.92" class="st0" width="0.39" height="16.5"/>
      <rect id="Rechteck_371" x="96.37" y="4.92" class="st0" width="0.39" height="16.5"/>
      <rect id="Rechteck_372" x="145.29" y="4.92" class="st0" width="2.22" height="16.5"/>
      <rect id="Rechteck_373" x="116.08" y="4.92" class="st0" width="2.22" height="16.5"/>
      <rect id="Rechteck_374" x="54.98" y="4.92" class="st0" width="2.55" height="16.5"/>
      <rect id="Rechteck_375" x="82.24" y="4.92" class="st0" width="2.55" height="16.5"/>
    </g>
    <g id="Gruppe_154" transform="translate(1205.668 36.672) rotate(180)">
      <rect id="Rechteck_351-2" x="6.98" y="-4.92" class="st0" width="2.22" height="16.5"/>
      <rect id="Rechteck_352-2" x="54.27" y="-4.92" class="st0" width="2.22" height="16.5"/>
      <rect id="Rechteck_353-2" x="71.76" y="-4.92" class="st0" width="2.22" height="16.5"/>
      <rect id="Rechteck_354-2" x="104.88" y="-4.92" class="st0" width="2.22" height="16.5"/>
      <rect id="Rechteck_355-2" x="102.4" y="-4.92" class="st0" width="1.6" height="16.5"/>
      <rect id="Rechteck_356-2" x="100.43" y="-4.92" class="st0" width="0.73" height="16.5"/>
      <rect id="Rechteck_357-2" x="97.55" y="-4.92" class="st0" width="0.39" height="16.5"/>
      <rect id="Rechteck_358-2" x="41.55" y="-4.92" class="st0" width="0.39" height="16.5"/>
      <rect id="Rechteck_359-2" x="35.11" y="-4.92" class="st0" width="0.39" height="16.5"/>
      <rect id="Rechteck_360-2" x="32.27" y="-4.92" class="st0" width="0.39" height="16.5"/>
      <rect id="Rechteck_361-2" x="13.66" y="-4.92" class="st0" width="0.73" height="16.5"/>
      <rect id="Rechteck_362-2" x="-4.51" y="-4.92" class="st0" width="0.73" height="16.5"/>
      <rect id="Rechteck_364-2" x="29.22" y="-4.92" class="st0" width="0.39" height="16.5"/>
      <rect id="Rechteck_365-2" x="1.22" y="-4.92" class="st0" width="0.39" height="16.5"/>
      <rect id="Rechteck_367-2" x="98.49" y="-4.92" class="st0" width="0.39" height="16.5"/>
      <rect id="Rechteck_368-2" x="99.24" y="-4.92" class="st0" width="0.39" height="16.5"/>
      <rect id="Rechteck_369-2" x="67.66" y="-4.92" class="st0" width="0.39" height="16.5"/>
      <rect id="Rechteck_370-2" x="65.28" y="-4.92" class="st0" width="0.39" height="16.5"/>
      <rect id="Rechteck_371-2" x="59.01" y="-4.92" class="st0" width="0.39" height="16.5"/>
      <rect id="Rechteck_372-2" x="107.93" y="-4.92" class="st0" width="2.22" height="16.5"/>
      <rect id="Rechteck_373-2" x="78.73" y="-4.92" class="st0" width="2.22" height="16.5"/>
      <rect id="Rechteck_374-2" x="17.62" y="-4.92" class="st0" width="2.55" height="16.5"/>
      <rect id="Rechteck_375-2" x="44.88" y="-4.92" class="st0" width="2.55" height="16.5"/>
    </g>
  </g>
</svg>