<?xml version="1.0" encoding="utf-8"?>
<svg viewBox="177.541 220.639 83 32.762" xmlns="http://www.w3.org/2000/svg" xmlns:bx="https://boxy-svg.com">
  <defs>
    <bx:grid x="0" y="0" width="819.76" height="434.559"/>
  </defs>
  <g id="globe" transform="matrix(1, 0, 0, 1, 160.336548, 200.28009)">
    <g id="Ellipse_3" transform="translate(32.424 0.391)">
      <g>
        <ellipse class="st0" cx="25.78" cy="36.73" rx="9" ry="16" style="fill: none;"/>
      </g>
      <g>
        <path class="st1" d="M25.78,52.73c-4.96,0-9-7.18-9-16s4.04-16,9-16s9,7.18,9,16S30.74,52.73,25.78,52.73z M25.78,21.73 c-4.41,0-8,6.73-8,15s3.59,15,8,15s8-6.73,8-15S30.19,21.73,25.78,21.73z" style="fill: rgb(19, 19, 19);"/>
      </g>
    </g>
    <g id="Ellipse_4" transform="translate(13.424 0.391)">
      <g>
        <ellipse class="st0" cx="45.78" cy="36.73" rx="29" ry="16" style="fill: none;"/>
      </g>
      <g>
        <path class="st1" d="M45.78,52.73c-15.99,0-29-7.18-29-16s13.01-16,29-16s29,7.18,29,16S61.77,52.73,45.78,52.73z M45.78,21.73 c-15.44,0-28,6.73-28,15s12.56,15,28,15s28-6.73,28-15S61.22,21.73,45.78,21.73z" style="fill: rgb(19, 19, 19);"/>
      </g>
    </g>
    <g id="Ellipse_5" transform="translate(0.424 0.391)">
      <g>
        <ellipse class="st0" cx="58.28" cy="36.73" rx="41.5" ry="16" style="fill: none;"/>
      </g>
      <g>
        <path class="st1" d="M58.28,52.73c-23.27,0-41.5-7.03-41.5-16s18.23-16,41.5-16s41.5,7.03,41.5,16S81.55,52.73,58.28,52.73z M58.28,21.73c-22.33,0-40.5,6.73-40.5,15s18.17,15,40.5,15s40.5-6.73,40.5-15S80.61,21.73,58.28,21.73z" style="fill: rgb(19, 19, 19);"/>
      </g>
    </g>
    <g id="Pfad_239">
      <rect x="17.52" y="36.8" class="st1" width="82.61" height="1" style="fill: rgb(19, 19, 19);"/>
    </g>
    <g id="Pfad_241">
      <rect x="24.9" y="45.37" class="st1" width="67.85" height="1" style="fill: rgb(19, 19, 19);"/>
    </g>
    <g id="Pfad_240">
      <rect x="24.1" y="28.23" class="st1" width="69.04" height="1" style="fill: rgb(19, 19, 19);"/>
    </g>
  </g>
  <g id="Pfad_940" transform="matrix(1, 0, 0, 1, 160.760498, 199.907074)">
    <path class="st1" d="M58.28,21.49c9.11,0,16.5,6.94,16.5,15.5s-7.39,15.5-16.5,15.5s-16.5-6.94-16.5-15.5S49.16,21.49,58.28,21.49z " style="fill: rgb(19, 19, 19);"/>
  </g>
  <g id="Gruppe_188" transform="matrix(1, 0, 0, 1, -438.239471, 191.671082)">
    <g id="Ellipse_24" transform="translate(640.5 8.236) rotate(45)">
      <g>
        <circle class="st0" cx="32.02" cy="8.3" r="5.5" style="fill: none;"/>
      </g>
      <g>
        <path class="st2" d="M35.91,12.19c-1,1-2.37,1.61-3.89,1.61c-3.03,0-5.5-2.47-5.5-5.5s2.47-5.5,5.5-5.5s5.5,2.47,5.5,5.5 C37.52,9.82,36.9,11.19,35.91,12.19z M28.84,5.12c-0.81,0.81-1.32,1.94-1.32,3.18c0,2.48,2.02,4.5,4.5,4.5 c2.48,0,4.5-2.02,4.5-4.5c0-2.48-2.02-4.5-4.5-4.5C30.78,3.8,29.65,4.3,28.84,5.12z" style="fill: rgb(236, 236, 236);"/>
      </g>
    </g>
    <g id="Ellipse_27" transform="translate(632.015 16.723) rotate(45)">
      <g>
        <circle class="st0" cx="32.02" cy="8.3" r="5.5" style="fill: none;"/>
      </g>
      <g>
        <path class="st2" d="M35.91,12.19c-1,1-2.37,1.61-3.89,1.61c-1.47,0-2.85-0.57-3.89-1.61s-1.61-2.42-1.61-3.89 c0-3.03,2.47-5.5,5.5-5.5c1.47,0,2.85,0.57,3.89,1.61c1.04,1.04,1.61,2.42,1.61,3.89C37.52,9.82,36.9,11.19,35.91,12.19z M28.84,5.12c-0.81,0.81-1.32,1.94-1.32,3.18c0,1.2,0.47,2.33,1.32,3.18c0.85,0.85,1.98,1.32,3.18,1.32c2.48,0,4.5-2.02,4.5-4.5 c0-1.2-0.47-2.33-1.32-3.18c-0.85-0.85-1.98-1.32-3.18-1.32C30.78,3.8,29.65,4.3,28.84,5.12z" style="fill: rgb(236, 236, 236);"/>
      </g>
    </g>
    <g id="Ellipse_25" transform="translate(648.985 16.723) rotate(45)">
      <g>
        <circle class="st0" cx="32.02" cy="8.3" r="5.5" style="fill: none;"/>
      </g>
      <g>
        <path class="st2" d="M35.91,12.19c-1,1-2.37,1.61-3.89,1.61c-1.47,0-2.85-0.57-3.89-1.61s-1.61-2.42-1.61-3.89 c0-3.03,2.47-5.5,5.5-5.5c1.47,0,2.85,0.57,3.89,1.61c1.04,1.04,1.61,2.42,1.61,3.89C37.52,9.82,36.9,11.19,35.91,12.19z M28.84,5.12c-0.81,0.81-1.32,1.94-1.32,3.18c0,1.2,0.47,2.33,1.32,3.18c0.85,0.85,1.98,1.32,3.18,1.32c2.48,0,4.5-2.02,4.5-4.5 c0-1.2-0.47-2.33-1.32-3.18c-0.85-0.85-1.98-1.32-3.18-1.32C30.78,3.8,29.65,4.3,28.84,5.12z" style="fill: rgb(236, 236, 236);"/>
      </g>
    </g>
    <g id="Ellipse_26" transform="translate(640.5 25.207) rotate(45)">
      <g>
        <circle class="st0" cx="32.02" cy="8.3" r="5.5" style="fill: none;"/>
      </g>
      <g>
        <path class="st2" d="M35.91,12.19c-1,1-2.37,1.61-3.89,1.61c-3.03,0-5.5-2.47-5.5-5.5s2.47-5.5,5.5-5.5s5.5,2.47,5.5,5.5 C37.52,9.82,36.9,11.19,35.91,12.19z M28.84,5.12c-0.81,0.81-1.32,1.94-1.32,3.18c0,2.48,2.02,4.5,4.5,4.5 c2.48,0,4.5-2.02,4.5-4.5c0-2.48-2.02-4.5-4.5-4.5C30.78,3.8,29.65,4.3,28.84,5.12z" style="fill: rgb(236, 236, 236);"/>
      </g>
    </g>
  </g>
</svg>