<?xml version="1.0" encoding="utf-8"?>
<svg viewBox="101.19 165.656 179.541 33.769" xmlns="http://www.w3.org/2000/svg" xmlns:bx="https://boxy-svg.com">
  <g id="Gruppe_182" transform="matrix(1, 0, 0, 1, 153.105164, 107.399323)">
    <path id="Pfad_906" class="st0" d="M127.16,85.32c-0.28-0.21-8.85-8.4-8.85-8.4l8.69-10.52c0,0,0.17-0.48-0.17-0.71 c-0.41-0.2-0.91-0.13-1.24,0.18c-0.39,0.3-9.6,9.04-9.6,9.04l-8.19-8.26l2.76-7.61c0,0,0.25-0.6-0.08-0.74s-0.66,0.07-0.99,0.46 s-6.23,8.4-6.23,8.4l-7.03,5.14L93.4,68.5l0.63-5.26c0,0-0.05-0.25-0.22-0.28c-0.22,0-0.43,0.12-0.52,0.32 c-0.14,0.23-3.48,5.1-3.48,5.1l-13.74,0.51l-0.91,0.92l-10.78-4.98c0,0-0.5-0.28-0.8,0.07s0.39,0.71,0.39,0.71l8.47,6.46 l-2.29,2.61l-14.73-8.65l-3.56-6.39c0,0-0.36-0.71-0.69-0.69s-0.3,0.48-0.3,0.79s0.36,6.55,0.36,6.55l-6.46,8.19l-14.18-5.91 c0,0-1.65-0.69-1.82-0.32s-0.17,0.88,1.05,1.43s12.85,7.06,12.85,7.06s-6.29,8.09-6.43,8.39c-0.06,0.13-0.59,0.86-0.2,1.11 c0.31,0.19,0.85,0.17,1.93-0.87c1.93-1.85,7.17-7.29,7.17-7.29l3.92,2.21l-2.1,4.24c0,0-0.25,0.46,0.05,0.6s0.47,0.09,0.91-0.37 s3.53-3.53,3.53-3.53l6.26,0.11l7.12,7.38c0,0,0.51,0.6,0.8,0.46c0.38-0.18,0.39-0.47,0.11-0.92c-0.18-0.29-3.42-6.95-3.42-6.95 h5.71l2.46-2.31l4.08,2.4l13.74-0.07l1.13,9.6c0,0,0.08,0.78,0.66,0.81s0.61-0.74,0.61-0.74l1.16-11.07l2.98-1.94l3.7,6.14 l10.98,1.43l8.3,5.98c0,0,0.83,0.67,1.1,0.42s-0.08-0.85-0.28-1.18s-5.65-7.38-5.65-7.38l3.78-4.61l9.79,7.41 c0,0,0.63,0.48,0.94,0.16S127.44,85.53,127.16,85.32z M66.34,78.26H52.77L51.5,77.4l4.25-4.34c0,0,0.39-0.6,0.17-0.85 s-0.58-0.09-0.94,0.09s-5.85,3.81-5.85,3.81l-1.74-0.53l7.06-6.51l13.07,7.8L66.34,78.26z M88.65,77.82l-12.58,0.32l-2.65-1.8 c0,0,4.39-4.2,4.55-4.18s12.85-0.46,12.85-0.46l2.18,2.86L88.65,77.82z M109.12,81.93l-6.92-0.46l-4.03-5.93l7.2-5.12l8.83,6.55 L109.12,81.93z" style="fill: rgb(19, 19, 19);"/>
    <path id="Pfad_907" class="st1" d="M42.88,76.42l0.7-0.9l-9-4.02L42.88,76.42z" style="fill: rgb(255, 255, 255);"/>
    <path id="Pfad_908" class="st1" d="M46.3,76.61l-0.76,1.03l5.12,2.94l8.65-0.15l-7.47-0.9L46.3,76.61z" style="fill: rgb(255, 255, 255);"/>
    <path id="Pfad_909" class="st1" d="M52.39,66.76c0.84,0.23,1.71,0.27,2.57,0.12l10.5,8.27l-11.07-7.12l-5.78,5.58L52.39,66.76z" style="fill: rgb(255, 255, 255);"/>
    <path id="Pfad_910" class="st1" d="M53.17,65.6l-1.29-4.43c0,0,3.11,4.93,2.79,4.93S53.88,66.47,53.17,65.6z" style="fill: rgb(255, 255, 255);"/>
    <path id="Pfad_911" class="st1" d="M58.63,62.1" style="fill: rgb(255, 255, 255);"/>
    <path id="Pfad_912" class="st1" d="M67.98,77.26l1.21,0.68l-1.61,2.23l-7.5-1.58l6.46,0.31L67.98,77.26z" style="fill: rgb(255, 255, 255);"/>
    <path id="Pfad_913" class="st1" d="M70.74,74.82l0.75,0.59l2.54-3.53L70.74,74.82z" style="fill: rgb(255, 255, 255);"/>
    <path id="Pfad_914" class="st1" d="M68.96,67.73l4.78,3.24l0.71-0.82L68.96,67.73z" style="fill: rgb(255, 255, 255);"/>
    <path id="Pfad_915" class="st1" d="M76.44,71.27l1.46,0.12l-2.25,2.26L76.44,71.27z" style="fill: rgb(255, 255, 255);"/>
    <path id="Pfad_916" class="st1" d="M78.79,69.34l10.85,1.14l0.18-0.43l-0.64-0.9L78.79,69.34z" style="fill: rgb(255, 255, 255);"/>
    <path id="Pfad_917" class="st1" d="M90.25,68.84l0.36,0.71l2.64-5.11L90.25,68.84z" style="fill: rgb(255, 255, 255);"/>
    <path id="Pfad_918" class="st1" d="M93.28,69.34l-0.29,0.67l-0.61,0.46l0.89,0.48C93.28,70.96,94.35,70.77,93.28,69.34z" style="fill: rgb(255, 255, 255);"/>
    <path id="Pfad_919" class="st1" d="M103.86,67.94v0.65h1.64L97,73.27L103.86,67.94z" style="fill: rgb(255, 255, 255);"/>
    <path id="Pfad_920" class="st1" d="M108.48,62.04l-3.03,5.61c0,0-0.18,1.36,0.79,0.59S107.52,66.07,108.48,62.04z" style="fill: rgb(255, 255, 255);"/>
    <path id="Pfad_921" class="st1" d="M110.74,67.43" style="fill: rgb(255, 255, 255);"/>
    <path id="Pfad_922" class="st1" d="M109.06,68.54" style="fill: rgb(255, 255, 255);"/>
    <path id="Pfad_923" class="st1" d="M109.81,69.9l5.57,5.67c0,0,0.39,0.37,0.57,0.19s-0.21-0.62-0.21-0.62L109.81,69.9z" style="fill: rgb(255, 255, 255);"/>
    <path id="Pfad_924" class="st1" d="M118.27,77.57l-0.5,0.5l3.71,3L118.27,77.57z" style="fill: rgb(255, 255, 255);"/>
    <path id="Pfad_925" class="st1" d="M113.06,83.83l-0.54,0.65l3.82,4.03L113.06,83.83z" style="fill: rgb(255, 255, 255);"/>
    <path id="Pfad_926" class="st1" d="M110,83.6l-0.75,1.42l-7.32-1.02L110,83.6z" style="fill: rgb(255, 255, 255);"/>
    <path id="Pfad_927" class="st1" d="M90.21,79.39c0,0,0.49,0.77,0.92,0.51s-0.92,8.43-0.92,8.43V79.39z" style="fill: rgb(255, 255, 255);"/>
    <path id="Pfad_928" class="st1" d="M87.84,80.62c0.08-0.02,1.21-1.39,2.19-1.53s-11.02,1.35-12.01,1.67L87.84,80.62z" style="fill: rgb(255, 255, 255);"/>
    <path id="Pfad_929" class="st1" d="M91.77,71.58c0,0,1.35,3,1.67,2.81S94.33,73.67,91.77,71.58z" style="fill: rgb(255, 255, 255);"/>
    <path id="Pfad_930" class="st1" d="M95.9,77.12c0,0-0.54,0.42,0,1.18s3.19,5.32,3.19,5.32s0.88,0.67,1.5,0.28s-0.21-1.51-0.21-1.51 l-3.49-5.02c-0.19-0.34-0.61-0.46-0.95-0.27C95.92,77.11,95.91,77.11,95.9,77.12z" style="fill: rgb(255, 255, 255);"/>
    <path id="Pfad_931" class="st1" d="M110.68,81.87l3.99-4.16c0,0,1.37-0.88,0.43,0.53s-3.13,3.9-3.13,3.9S110.02,82.55,110.68,81.87 z" style="fill: rgb(255, 255, 255);"/>
    <path id="Pfad_932" class="st1" d="M60.21,81.35l1.18-0.16l1.66,3.83L60.21,81.35z" style="fill: rgb(255, 255, 255);"/>
    <path id="Pfad_933" class="st1" d="M49.41,80.55l0.75,0.37l-1.53,2.07L49.41,80.55z" style="fill: rgb(255, 255, 255);"/>
    <path id="Pfad_934" class="st1" d="M42.98,77.7l0.61,0.37l-5.48,5.62L42.98,77.7z" style="fill: rgb(255, 255, 255);"/>
    <path id="Pfad_935" class="st1" d="M53.11,74.44l-2.78,1.96c0,0-0.38,0.38,0,0.64s0.91,0.35,1.18,0s1.98-2.6,1.98-2.6 S53.62,74.08,53.11,74.44z" style="fill: rgb(255, 255, 255);"/>
  </g>
  <g id="Gruppe_190" transform="matrix(1, 0, 0, 1, 72.50415, 107.399323)">
    <path id="Pfad_906-2" class="st0" d="M29.16,85.32c0.28-0.21,8.85-8.4,8.85-8.4L29.32,66.4c0,0-0.17-0.48,0.17-0.71 c0.41-0.2,0.91-0.13,1.24,0.18c0.39,0.3,9.6,9.04,9.6,9.04l8.19-8.26l-2.76-7.61c0,0-0.25-0.6,0.08-0.74s0.66,0.07,0.99,0.46 s6.23,8.4,6.23,8.4l7.03,5.14l2.81-3.81l-0.63-5.26c0,0,0.05-0.25,0.22-0.28c0.22,0,0.43,0.12,0.52,0.32 c0.14,0.23,3.48,5.1,3.48,5.1l13.74,0.51l0.91,0.92l10.79-4.98c0,0,0.5-0.28,0.8,0.07s-0.39,0.71-0.39,0.71l-8.47,6.46l2.29,2.61 l14.73-8.65l3.55-6.39c0,0,0.36-0.71,0.69-0.69s0.3,0.48,0.3,0.79s-0.36,6.55-0.36,6.55l6.46,8.19l14.18-5.91 c0,0,1.65-0.69,1.82-0.32s0.17,0.88-1.05,1.43s-12.85,7.06-12.85,7.06s6.29,8.09,6.43,8.39c0.06,0.13,0.59,0.86,0.2,1.11 c-0.31,0.19-0.85,0.17-1.93-0.87c-1.93-1.85-7.17-7.29-7.17-7.29l-3.92,2.21l2.1,4.24c0,0,0.25,0.46-0.05,0.6s-0.47,0.09-0.91-0.37 s-3.53-3.53-3.53-3.53l-6.26,0.11l-7.12,7.38c0,0-0.51,0.6-0.8,0.46c-0.38-0.18-0.39-0.47-0.11-0.92c0.18-0.29,3.42-6.95,3.42-6.95 h-5.71l-2.46-2.31l-4.08,2.4l-13.74-0.07l-1.13,9.6c0,0-0.08,0.78-0.66,0.81s-0.61-0.74-0.61-0.74l-1.16-11.07L61.46,78l-3.7,6.14 l-10.98,1.43l-8.3,5.98c0,0-0.83,0.67-1.1,0.42s0.08-0.85,0.28-1.18s5.65-7.38,5.65-7.38l-3.78-4.61l-9.79,7.41 c0,0-0.63,0.48-0.94,0.16S28.88,85.53,29.16,85.32z M89.98,78.26h13.57l1.27-0.85l-4.25-4.34c0,0-0.39-0.6-0.17-0.85 s0.58-0.09,0.94,0.09s5.85,3.81,5.85,3.81l1.74-0.53l-7.06-6.51l-13.07,7.8L89.98,78.26z M67.67,77.82l12.58,0.32l2.65-1.8 c0,0-4.39-4.2-4.55-4.18s-12.85-0.46-12.85-0.46l-2.18,2.86L67.67,77.82z M47.2,81.93l6.92-0.46l4.03-5.93l-7.2-5.12l-8.83,6.55 L47.2,81.93z" style="fill: rgb(19, 19, 19);"/>
    <path id="Pfad_907-2" class="st1" d="M113.43,76.42l-0.7-0.9l9-4.02L113.43,76.42z" style="fill: rgb(255, 255, 255);"/>
    <path id="Pfad_908-2" class="st1" d="M110.02,76.61l0.76,1.03l-5.12,2.94l-8.65-0.15l7.47-0.9L110.02,76.61z" style="fill: rgb(255, 255, 255);"/>
    <path id="Pfad_909-2" class="st1" d="M103.93,66.76c-0.84,0.23-1.71,0.27-2.57,0.12l-10.5,8.27l11.07-7.12l5.78,5.58L103.93,66.76z " style="fill: rgb(255, 255, 255);"/>
    <path id="Pfad_910-2" class="st1" d="M103.15,65.61l1.29-4.43c0,0-3.11,4.93-2.79,4.93S102.43,66.47,103.15,65.61z" style="fill: rgb(255, 255, 255);"/>
    <path id="Pfad_911-2" class="st1" d="M97.69,62.1" style="fill: rgb(255, 255, 255);"/>
    <path id="Pfad_912-2" class="st1" d="M88.34,77.26l-1.21,0.68l1.61,2.23l7.5-1.58l-6.46,0.31L88.34,77.26z" style="fill: rgb(255, 255, 255);"/>
    <path id="Pfad_913-2" class="st1" d="M85.58,74.82l-0.75,0.59l-2.54-3.53L85.58,74.82z" style="fill: rgb(255, 255, 255);"/>
    <path id="Pfad_914-2" class="st1" d="M87.35,67.73l-4.78,3.24l-0.71-0.82L87.35,67.73z" style="fill: rgb(255, 255, 255);"/>
    <path id="Pfad_915-2" class="st1" d="M79.88,71.27l-1.46,0.12l2.25,2.26L79.88,71.27z" style="fill: rgb(255, 255, 255);"/>
    <path id="Pfad_916-2" class="st1" d="M77.53,69.34l-10.86,1.14l-0.18-0.43l0.64-0.9L77.53,69.34z" style="fill: rgb(255, 255, 255);"/>
    <path id="Pfad_917-2" class="st1" d="M66.07,68.84l-0.36,0.71l-2.64-5.11L66.07,68.84z" style="fill: rgb(255, 255, 255);"/>
    <path id="Pfad_918-2" class="st1" d="M63.04,69.34l0.29,0.67l0.61,0.46l-0.89,0.48C63.04,70.96,61.97,70.77,63.04,69.34z" style="fill: rgb(255, 255, 255);"/>
    <path id="Pfad_919-2" class="st1" d="M52.46,67.94v0.65h-1.64l8.5,4.68L52.46,67.94z" style="fill: rgb(255, 255, 255);"/>
    <path id="Pfad_920-2" class="st1" d="M47.83,62.04l3.03,5.61c0,0,0.18,1.36-0.79,0.59S48.8,66.07,47.83,62.04z" style="fill: rgb(255, 255, 255);"/>
    <path id="Pfad_921-2" class="st1" d="M45.58,67.43" style="fill: rgb(255, 255, 255);"/>
    <path id="Pfad_922-2" class="st1" d="M47.25,68.54" style="fill: rgb(255, 255, 255);"/>
    <path id="Pfad_923-2" class="st1" d="M46.51,69.9l-5.57,5.67c0,0-0.39,0.37-0.57,0.19s0.21-0.62,0.21-0.62L46.51,69.9z" style="fill: rgb(255, 255, 255);"/>
    <path id="Pfad_924-2" class="st1" d="M38.04,77.57l0.5,0.5l-3.71,3L38.04,77.57z" style="fill: rgb(255, 255, 255);"/>
    <path id="Pfad_925-2" class="st1" d="M43.26,83.83l0.54,0.65l-3.82,4.03L43.26,83.83z" style="fill: rgb(255, 255, 255);"/>
    <path id="Pfad_926-2" class="st1" d="M46.32,83.6l0.75,1.42l7.32-1.02L46.32,83.6z" style="fill: rgb(255, 255, 255);"/>
    <path id="Pfad_927-2" class="st1" d="M66.11,79.39c0,0-0.49,0.77-0.92,0.51s0.92,8.43,0.92,8.43V79.39z" style="fill: rgb(255, 255, 255);"/>
    <path id="Pfad_928-2" class="st1" d="M68.47,80.62c-0.08-0.02-1.21-1.39-2.19-1.53s11.02,1.35,12.01,1.67L68.47,80.62z" style="fill: rgb(255, 255, 255);"/>
    <path id="Pfad_929-2" class="st1" d="M64.55,71.58c0,0-1.35,3-1.67,2.81S61.98,73.67,64.55,71.58z" style="fill: rgb(255, 255, 255);"/>
    <path id="Pfad_930-2" class="st1" d="M60.42,77.12c0,0,0.54,0.42,0,1.18s-3.19,5.32-3.19,5.32s-0.88,0.67-1.5,0.28 s0.21-1.51,0.21-1.51l3.49-5.02c0.19-0.34,0.61-0.46,0.95-0.27C60.4,77.11,60.41,77.11,60.42,77.12z" style="fill: rgb(255, 255, 255);"/>
    <path id="Pfad_931-2" class="st1" d="M45.64,81.87l-3.99-4.16c0,0-1.37-0.88-0.43,0.53s3.13,3.9,3.13,3.9S46.3,82.56,45.64,81.87z" style="fill: rgb(255, 255, 255);"/>
    <path id="Pfad_932-2" class="st1" d="M96.1,81.35l-1.18-0.16l-1.66,3.83L96.1,81.35z" style="fill: rgb(255, 255, 255);"/>
    <path id="Pfad_933-2" class="st1" d="M106.9,80.55l-0.75,0.37l1.53,2.07L106.9,80.55z" style="fill: rgb(255, 255, 255);"/>
    <path id="Pfad_934-2" class="st1" d="M113.34,77.7l-0.61,0.37l5.48,5.62L113.34,77.7z" style="fill: rgb(255, 255, 255);"/>
    <path id="Pfad_935-2" class="st1" d="M103.21,74.44l2.78,1.96c0,0,0.38,0.38,0,0.64s-0.91,0.35-1.18,0s-1.98-2.6-1.98-2.6 S102.7,74.08,103.21,74.44z" style="fill: rgb(255, 255, 255);"/>
  </g>
  <defs>
    <bx:grid x="0" y="0" width="819.76" height="434.559"/>
  </defs>
</svg>